<?xml version="1.0" encoding="UTF-8" standalone="no"?>
<svg width="26px" height="26px" viewBox="0 0 26 26" version="1.1" xmlns="http://www.w3.org/2000/svg" xmlns:xlink="http://www.w3.org/1999/xlink">
  <g class="victory-svg__cross" fill="#00609a">
    <path d="M12,12 L1.18181818,12 C0.529118023,12 0,12.4477153 0,13 C0,13.5522847 0.529118023,14 1.18181818,14 L12,14 L12,24.8181818 C12,25.470882 12.4477153,26 13,26 C13.5522847,26 14,25.470882 14,24.8181818 L14,14 L24.8181818,14 C25.470882,14 26,13.5522847 26,13 C26,12.4477153 25.470882,12 24.8181818,12 L14,12 L14,1.18181818 C14,0.529118023 13.5522847,0 13,0 C12.4477153,0 12,0.529118023 12,1.18181818 L12,12 Z" id="Combined-Shape"></path>
  </g>
</svg>
