<?xml version="1.0" encoding="UTF-8" standalone="no"?>
<svg width="12px" height="11px" viewBox="0 0 12 11" version="1.1" xmlns="http://www.w3.org/2000/svg" xmlns:xlink="http://www.w3.org/1999/xlink">
    <!-- Generator: Sketch 44.1 (41455) - http://www.bohemiancoding.com/sketch -->
    <title>External</title>
    <desc>Created with Sketch.</desc>
    <defs></defs>
    <g id="Symbols" stroke="none" stroke-width="1" fill="none" fill-rule="evenodd">
        <g id="Text-Link---External" transform="translate(-151.000000, -6.000000)" fill="#123955">
            <g id="External">
                <path d="M160.428583,12.9285666 L160.428583,15.0714263 C160.428583,16.1361597 159.564742,17 158.500009,17 L152.928574,17 C151.86384,17 151,16.1361597 151,15.0714263 L151,9.49999106 C151,8.43525765 151.86384,7.57141733 152.928574,7.57141733 L157.642865,7.57141733 C157.763401,7.57141733 157.857151,7.66516744 157.857151,7.7857033 L157.857151,8.21427524 C157.857151,8.3348111 157.763401,8.42856121 157.642865,8.42856121 L152.928574,8.42856121 C152.339287,8.42856121 151.857144,8.91070464 151.857144,9.49999106 L151.857144,15.0714263 C151.857144,15.6607127 152.339287,16.1428561 152.928574,16.1428561 L158.500009,16.1428561 C159.089295,16.1428561 159.571439,15.6607127 159.571439,15.0714263 L159.571439,12.9285666 C159.571439,12.8080307 159.665189,12.7142806 159.785725,12.7142806 L160.214297,12.7142806 C160.334833,12.7142806 160.428583,12.8080307 160.428583,12.9285666 Z M163.000014,7.14284539 L163.000014,10.5714209 C163.000014,10.8057962 162.805818,10.9999928 162.571442,10.9999928 C162.457603,10.9999928 162.35046,10.9531178 162.270103,10.8727606 L161.09153,9.69418772 L156.725453,14.0602644 C156.685275,14.100443 156.625007,14.1272287 156.571435,14.1272287 C156.517864,14.1272287 156.457596,14.100443 156.417417,14.0602644 L155.654023,13.2968706 C155.613845,13.256692 155.587059,13.196424 155.587059,13.1428525 C155.587059,13.0892811 155.613845,13.0290131 155.654023,12.9888345 L160.0201,8.62275787 L158.841527,7.44418504 C158.76117,7.3638278 158.714295,7.25668481 158.714295,7.14284539 C158.714295,6.90847011 158.908492,6.71427345 159.142867,6.71427345 L162.571442,6.71427345 C162.805818,6.71427345 163.000014,6.90847011 163.000014,7.14284539 Z"></path>
            </g>
        </g>
    </g>
</svg>