<?xml version="1.0" encoding="UTF-8"?>
<svg width="11px" height="11px" viewBox="0 0 11 11" version="1.1" xmlns="http://www.w3.org/2000/svg" xmlns:xlink="http://www.w3.org/1999/xlink">
    <!-- Generator: Sketch 42 (36781) - http://www.bohemiancoding.com/sketch -->
    <title>Fill 51</title>
    <desc>Created with Sketch.</desc>
    <defs></defs>
    <g id="Symbols" stroke="none" stroke-width="1" fill="none" fill-rule="evenodd">
        <g id="component/footer/sm" transform="translate(-679.000000, -342.000000)" fill="#CCDFEA">
            <path d="M690,348.913306 L690,350.596724 C689.99797,351.920721 688.921735,352.997973 687.596724,353 L681.403276,353 C680.079279,352.99797 679.002027,351.921735 679,350.596724 L679,344.403276 C679.00203,343.079279 680.078265,342.002027 681.403276,342 L683.086694,342 C683.321233,342 683.511096,342.189866 683.511096,342.424403 C683.511096,342.658942 683.32123,342.848805 683.086694,342.848805 L681.403276,342.848805 C680.551429,342.850835 679.849819,343.551403 679.848805,344.403276 L679.848805,350.596724 C679.850835,351.448571 680.551403,352.150181 681.403276,352.151195 L687.596724,352.151195 C688.448571,352.149165 689.150181,351.448597 689.151195,350.596724 L689.151195,348.913306 C689.151195,348.678767 689.341061,348.488904 689.575597,348.488904 C689.810137,348.488904 690,348.67877 690,348.913306 Z M689.96686,342.423378 L689.842991,342.123869 L689.543481,342 L686.13199,342 C685.897451,342 685.707587,342.189866 685.707587,342.424403 C685.707587,342.658942 685.897453,342.848805 686.13199,342.848805 L688.518007,342.848805 L684.322587,347.043185 C684.157089,347.208683 684.157089,347.477751 684.322587,347.643244 C684.488085,347.808742 684.757152,347.808742 684.922645,347.643244 L689.118065,343.447824 L689.118065,345.833841 C689.118065,346.06838 689.307931,346.258243 689.542468,346.258243 C689.777004,346.258243 689.96687,346.068377 689.96687,345.833841 L689.96686,342.423378 Z" id="Fill-51"></path>
        </g>
    </g>
</svg>