<?xml version="1.0" encoding="UTF-8"?>
<!DOCTYPE svg PUBLIC "-//W3C//DTD SVG 1.1//EN" "http://www.w3.org/Graphics/SVG/1.1/DTD/svg11.dtd">
<!-- Creator: CorelDRAW X6 -->
<svg xmlns="http://www.w3.org/2000/svg" xml:space="preserve" width="5.01389in" height="1.68055in" version="1.1" style="shape-rendering:geometricPrecision; text-rendering:geometricPrecision; image-rendering:optimizeQuality; fill-rule:evenodd; clip-rule:evenodd"
viewBox="0 0 5014 1681"
 xmlns:xlink="http://www.w3.org/1999/xlink">
 <defs>
  <style type="text/css">
   <![CDATA[
    .fil0 {fill:#2982C4;fill-rule:nonzero}
    .fil1 {fill:#2F3031;fill-rule:nonzero}
   ]]>
  </style>
 </defs>
 <g id="Layer_x0020_1">
  <metadata id="CorelCorpID_0Corel-Layer"/>
  <path class="fil0" d="M1578 1526c0,30 10,55 30,75 20,19 44,29 70,29 29,0 53,-10 73,-30 20,-20 30,-45 30,-73 0,-29 -10,-54 -29,-73 -19,-20 -43,-30 -72,-30 -28,0 -53,10 -72,30 -20,20 -29,44 -29,73zm-42 -1c0,-39 14,-72 42,-99 28,-28 62,-41 101,-41 39,0 72,14 100,42 28,28 42,61 42,100 0,39 -14,73 -42,100 -28,28 -62,41 -102,41 -35,0 -67,-12 -95,-37 -31,-27 -46,-62 -46,-106z"/>
  <polygon class="fil0" points="2055,1664 2055,1372 2254,1580 2254,1390 2295,1390 2295,1681 2096,1472 2096,1664 "/>
  <polygon class="fil0" points="2563,1390 2563,1625 2644,1625 2644,1664 2522,1664 2522,1390 "/>
  <polygon class="fil0" points="2868,1664 2909,1664 2909,1390 2868,1390 "/>
  <polygon class="fil0" points="3133,1664 3133,1372 3333,1580 3333,1390 3374,1390 3374,1681 3174,1472 3174,1664 "/>
  <polygon class="fil0" points="3752,1429 3643,1429 3643,1495 3749,1495 3749,1534 3643,1534 3643,1625 3752,1625 3752,1664 3601,1664 3601,1390 3752,1390 "/>
  <polygon class="fil1" points="1658,144 1743,429 1826,144 2021,144 1824,659 1662,659 1464,144 "/>
  <polygon class="fil1" points="2058,659 2242,659 2242,144 2058,144 "/>
  <path class="fil1" d="M2656 340c-30,-27 -59,-39 -92,-39 -59,0 -104,44 -104,102 0,57 44,100 103,100 34,0 61,-11 93,-33l0 182c-52,13 -84,18 -116,18 -154,0 -269,-113 -269,-261 0,-151 118,-271 267,-271 25,0 53,4 81,9 12,2 19,4 37,9l0 185z"/>
  <polygon class="fil1" points="2702,144 3093,144 3093,312 2989,306 2989,659 2805,659 2805,305 2702,309 "/>
  <path class="fil1" d="M3385 299c52,0 90,44 90,103 0,60 -38,104 -90,104 -53,0 -92,-44 -92,-103 0,-60 38,-103 92,-103zm-280 103c0,160 113,268 280,268 166,0 279,-108 279,-268 0,-160 -113,-268 -279,-268 -167,0 -280,108 -280,268z"/>
  <path class="fil1" d="M3900 283l24 0c31,0 51,18 51,45 0,29 -19,46 -51,46l-24 0 0 -91zm-186 376l185 0 0 -120c0,-1 -1,-8 -1,-16 -2,-19 -3,-31 -7,-56 11,26 16,37 23,51l7 15 62 126 213 0 -134 -201c62,-21 94,-67 94,-139 0,-101 -84,-175 -199,-175l-243 0 0 515z"/>
  <polygon class="fil1" points="4239,659 4423,659 4423,144 4239,144 "/>
  <path class="fil1" d="M4735 318l39 154 -78 0 39 -154zm284 341l0 0 -178 -515 -212 0 -178 515 194 0 19 -66 141 0 19 66 194 0z"/>
  <path class="fil1" d="M1881 1045c0,23 -2,43 -7,62 -19,69 -84,108 -181,108 -55,0 -105,-15 -137,-40 -34,-28 -51,-70 -51,-130l0 -249 146 0 0 231c0,21 1,33 4,38 5,14 21,22 38,22 11,0 19,-3 27,-9 13,-9 15,-18 15,-52l0 -231 146 0 0 249z"/>
  <polygon class="fil1" points="1929,796 2076,796 2203,1005 2203,796 2348,796 2348,1207 2198,1207 2075,1005 2075,1207 1929,1207 "/>
  <polygon class="fil1" points="2396,1207 2543,1207 2543,796 2396,796 "/>
  <polygon class="fil1" points="2716,796 2783,1024 2850,796 3005,796 2848,1207 2719,1207 2561,796 "/>
  <polygon class="fil1" points="3020,796 3294,796 3294,907 3168,907 3168,946 3282,946 3282,1053 3168,1053 3168,1092 3297,1092 3297,1207 3020,1207 "/>
  <path class="fil1" d="M3484 907l19 0c24,0 40,14 40,36 0,23 -15,37 -40,37l-19 0 0 -73zm-148 300l148 0 0 -95c0,-1 -1,-6 -1,-13 -2,-15 -3,-24 -6,-45 9,21 13,30 18,41l6 12 49 101 170 0 -107 -160c50,-17 75,-53 75,-110 0,-81 -67,-140 -159,-140l-194 0 0 411z"/>
  <path class="fil1" d="M3766 1060c36,29 68,42 100,42 22,0 37,-10 37,-24 0,-8 -6,-15 -14,-18 -5,-2 -9,-3 -32,-7 -25,-5 -37,-7 -48,-11 -47,-16 -74,-55 -74,-106 0,-85 72,-146 175,-146 48,0 86,11 133,37l-41 104c-28,-22 -55,-31 -84,-31 -21,0 -34,9 -34,21 0,11 9,17 33,21l27 6c30,7 43,12 59,21 34,19 53,55 53,99 0,88 -72,147 -178,147 -38,0 -80,-9 -117,-23 -14,-5 -22,-8 -40,-19l46 -114z"/>
  <polygon class="fil1" points="4079,1207 4226,1207 4226,796 4079,796 "/>
  <polygon class="fil1" points="4260,796 4572,796 4572,930 4488,926 4488,1207 4342,1207 4342,925 4260,928 "/>
  <polygon class="fil1" points="4752,796 4799,901 4846,796 5013,796 4873,1031 4873,1207 4725,1207 4725,1031 4585,796 "/>
  <path class="fil0" d="M598 16c5,-4 12,-4 18,-1 -3,-5 -4,-10 -4,-16 -3,1 -6,1 -9,0l0 0c0,6 -1,12 -5,17z"/>
  <path class="fil0" d="M18 614c-3,-6 -3,-13 1,-19 -5,4 -11,6 -17,5l-1 1c0,2 0,5 0,7l0 0c6,-1 12,1 17,5z"/>
  <path class="fil0" d="M1186 616c-7,3 -15,2 -20,-3 -7,-7 -7,-18 0,-25 6,-6 14,-7 20,-3 -3,-5 -4,-10 -4,-16l-1 -1c-5,1 -11,-1 -16,-4 3,7 2,15 -3,20 -7,7 -18,7 -25,0 -7,-7 -7,-18 0,-25 6,-5 14,-7 20,-3 -3,-5 -4,-10 -4,-16l-1 -1c-5,1 -11,-1 -16,-4 3,7 2,15 -3,20 -7,7 -18,7 -25,0 -7,-7 -7,-18 0,-25 5,-5 14,-7 20,-3 -3,-5 -4,-10 -4,-16l-1 -1c-5,1 -11,-1 -16,-4 3,7 2,15 -3,20 -7,7 -18,7 -25,0 -7,-7 -7,-18 0,-25 5,-6 14,-7 20,-3 -3,-5 -4,-10 -4,-16l-1 -1c-5,1 -11,-1 -16,-4 3,7 2,15 -3,20 -7,7 -18,7 -25,0 -7,-7 -7,-18 0,-25 5,-5 14,-7 20,-3 -3,-5 -4,-10 -4,-16l-1 -1c-5,1 -11,-1 -16,-4 3,7 2,15 -3,20 -7,7 -18,7 -25,0 -7,-7 -7,-18 0,-25 5,-5 14,-7 20,-3 -3,-5 -4,-11 -4,-16l-1 -1c-5,1 -11,-1 -16,-4 3,7 2,15 -3,20 -7,7 -18,7 -25,0 -7,-7 -7,-18 0,-25 6,-5 14,-7 20,-3 -3,-5 -4,-10 -4,-16l-1 -1c-6,1 -11,-1 -16,-4 3,7 2,15 -3,20 -7,7 -18,7 -25,0 -7,-7 -7,-18 0,-25 6,-5 14,-7 20,-3 -3,-5 -4,-10 -4,-16l-1 -1c-5,1 -11,-1 -16,-4 3,7 2,15 -3,20 -7,7 -18,7 -25,0 -7,-7 -7,-18 0,-25 6,-5 14,-7 20,-3 -3,-5 -4,-10 -4,-16l-1 -1c-6,1 -11,-1 -16,-4 3,7 2,15 -3,20 -7,7 -18,7 -25,0 -7,-7 -7,-18 0,-25 6,-6 14,-7 21,-3 -3,-5 -4,-10 -4,-16l-2 -2c-5,1 -11,-1 -16,-4 3,7 2,15 -3,20 -7,7 -18,7 -25,0 -7,-7 -7,-18 0,-25 5,-6 14,-7 20,-3 -3,-5 -4,-10 -4,-16l-1 -1c-5,1 -11,-1 -16,-4 3,7 2,15 -3,20 -7,7 -18,7 -25,0 -7,-7 -7,-18 0,-25 5,-6 14,-7 20,-3 -3,-5 -4,-11 -4,-16l-1 -1c-5,1 -11,-1 -16,-4 3,7 2,15 -3,20 -7,7 -18,7 -25,0 -7,-7 -7,-18 0,-25 6,-6 14,-7 20,-3 -3,-5 -4,-11 -4,-16l-1 -1c-5,1 -11,-1 -16,-4 3,7 2,15 -3,20 -7,7 -18,7 -25,0 -7,-7 -7,-18 0,-25 6,-6 14,-7 20,-3 -3,-5 -4,-10 -4,-16l-1 -1c-6,1 -11,-1 -16,-4 3,7 2,15 -3,20 -7,7 -18,7 -25,0 -7,-7 -7,-18 0,-25 6,-6 14,-7 20,-3 -3,-5 -4,-10 -4,-16l-1 -1c-5,1 -11,-1 -16,-4 3,7 2,15 -3,20 -7,7 -18,7 -25,0 -7,-7 -7,-18 0,-25 5,-6 14,-7 20,-3 -3,-5 -4,-10 -4,-16l-1 -1c-6,1 -11,-1 -16,-4 3,7 2,15 -3,20 -7,7 -18,7 -25,0 -7,-7 -7,-18 0,-25 6,-6 14,-7 21,-3 -3,-5 -4,-10 -4,-16l-2 -2c-6,1 -11,-1 -16,-4 3,7 2,15 -3,20 -7,7 -18,7 -25,0 -7,-7 -7,-18 0,-25 5,-6 14,-7 20,-3 -3,-5 -4,-10 -4,-16l-1 -1c-5,1 -11,-1 -16,-4 3,7 2,15 -3,20 -7,7 -18,7 -25,0 -7,-7 -7,-18 0,-25 5,-6 14,-7 20,-3 -3,-5 -4,-10 -4,-16l-1 -1c-5,1 -11,0 -16,-3 3,6 2,14 -3,20 -7,7 -18,7 -25,0 -7,-7 -7,-18 0,-25 5,-5 13,-6 20,-3 -3,-5 -4,-10 -3,-16l-1 -1c-5,1 -11,-1 -16,-3 3,7 2,15 -3,20 -7,7 -18,7 -25,0 -6,-6 -7,-15 -2,-22 -5,4 -11,6 -17,5l-2 2c0,6 -1,12 -5,17 7,-5 16,-4 22,2 7,7 7,18 0,25 -7,7 -18,7 -25,0 -6,-6 -7,-15 -2,-22 -5,4 -11,6 -17,5l-2 2c0,6 -1,12 -5,17 7,-5 16,-4 22,2 7,7 7,18 0,25 -7,7 -18,7 -25,0 -6,-6 -7,-15 -2,-22 -5,4 -11,6 -17,5l-2 2c0,6 -1,12 -5,17 7,-5 16,-4 22,2 7,7 7,18 0,25 -7,7 -18,7 -25,0 -6,-6 -7,-15 -2,-22 -5,4 -11,6 -17,5l-2 2c0,6 -1,12 -5,17 7,-5 16,-4 22,2 7,7 7,18 0,25 -7,7 -18,7 -25,0 -6,-6 -7,-15 -2,-22 -5,4 -11,6 -17,5l-2 2c0,6 -1,12 -5,17 7,-5 16,-4 22,2 7,7 7,18 0,25 -7,7 -18,7 -25,0 -6,-6 -7,-16 -2,-22 -5,4 -11,5 -17,5l-2 3c0,6 -1,12 -5,17 7,-5 16,-4 22,2 7,7 7,18 0,25 -7,7 -18,7 -25,0 -6,-6 -7,-15 -2,-22 -5,4 -11,6 -17,5l-2 2c0,6 -1,12 -5,17 7,-5 16,-4 22,2 7,7 7,18 0,25 -7,7 -18,7 -25,0 -6,-6 -7,-16 -2,-22 -5,4 -11,5 -17,5l-2 2c0,6 -1,12 -5,17 7,-5 16,-4 22,2 7,7 7,18 0,25 -7,7 -18,7 -25,0 -6,-6 -7,-15 -2,-22 -5,4 -11,6 -17,5l-2 2c0,6 -1,12 -5,17 7,-5 16,-4 22,2 7,7 7,18 0,25 -7,7 -18,7 -25,0 -6,-6 -7,-16 -2,-22 -5,4 -11,5 -17,5l-2 2c0,6 -1,12 -5,17 7,-5 16,-4 22,2 7,7 7,18 0,25 -7,7 -18,7 -25,0 -6,-6 -7,-15 -2,-22 -5,4 -11,6 -17,5l-2 2c0,6 -1,12 -5,17 7,-5 16,-4 22,2 7,7 7,18 0,25 -7,7 -18,7 -25,0 -6,-6 -7,-15 -2,-22 -5,4 -11,6 -17,5l-2 2c0,6 -1,12 -5,17 7,-5 16,-4 22,2 7,7 7,18 0,25 -7,7 -18,7 -25,0 -6,-6 -7,-16 -2,-22 -5,4 -11,6 -17,5l-2 2c0,6 -1,12 -5,17 7,-5 16,-4 22,2 7,7 7,18 0,25 -7,7 -18,7 -25,0 -6,-6 -7,-16 -2,-22 -5,4 -11,5 -17,5l-2 2c0,6 -1,12 -5,17 7,-5 16,-4 22,2 7,7 7,18 0,25 -7,7 -18,7 -25,0 -6,-6 -7,-15 -2,-22 -5,4 -11,6 -17,5l-2 2c0,6 -1,12 -5,17 7,-5 16,-4 22,2 7,7 7,18 0,25 -7,7 -18,7 -25,0 -6,-6 -7,-16 -2,-22 -5,4 -11,5 -17,5l-2 2c0,6 -1,12 -5,17 7,-5 16,-4 22,2 7,7 7,18 0,25 -7,7 -18,7 -25,0 -6,-6 -7,-16 -2,-22 -5,4 -11,6 -17,5l-3 3c0,6 -1,12 -5,17 7,-5 16,-4 23,2 7,7 7,18 0,25 -7,7 -18,7 -25,0 -6,-6 -7,-15 -2,-22 -5,4 -11,6 -17,5l-2 2c0,6 -1,12 -5,17 7,-5 16,-4 22,2 7,7 7,18 0,25 -7,7 -18,7 -25,0 -6,-6 -7,-16 -2,-22 -5,4 -11,6 -17,5l-2 2c0,6 -1,12 -5,17 7,-5 16,-4 22,2 7,7 7,18 0,25 -7,7 -18,7 -25,0 -6,-6 -7,-15 -2,-22 -5,4 -11,6 -17,5l-2 2c0,6 -1,12 -5,17 7,-5 16,-4 22,2 7,7 7,18 0,25 -6,6 -15,7 -21,3 4,5 5,11 4,17l1 1c6,-1 12,1 17,4 -4,-7 -3,-15 3,-21 7,-7 18,-7 25,0 7,7 7,18 0,25 -6,6 -14,7 -21,3 4,5 5,11 4,17l1 1c7,0 14,2 19,7 5,5 8,12 7,19l2 2c7,0 14,2 19,7 5,5 8,12 7,19l2 2c7,0 14,2 19,7 5,5 8,12 7,19l2 2c7,0 14,2 19,7 5,5 8,12 7,19l2 2c7,0 14,2 19,7 5,5 8,12 7,19l2 2c7,0 14,2 19,7 5,5 8,12 7,19l2 2c7,0 14,2 19,7 5,5 8,12 7,19l2 2c7,0 14,2 19,7 5,5 8,12 7,19l2 2c7,0 14,2 19,7 5,5 8,12 7,19l2 3c7,0 14,2 19,7 5,5 8,12 7,19l2 2c7,0 14,2 19,7 5,5 8,12 7,19l2 2c7,0 14,2 19,7 5,5 8,12 7,19l2 2c7,0 14,2 19,7 5,5 8,12 7,19l2 2c7,0 14,2 19,7 5,5 8,12 7,19l2 2c7,0 14,2 19,7 5,5 8,12 7,19l2 2c7,0 14,2 19,7 5,5 8,12 7,19l2 2c7,0 14,2 19,7 5,5 8,12 7,19l2 2c7,0 14,2 19,7 5,5 8,12 7,19l2 2c7,0 14,2 19,7 5,5 8,12 7,19l1 1c3,0 6,0 8,0l0 0c-1,-6 0,-12 4,-17 -7,3 -15,2 -20,-3 -7,-7 -7,-18 0,-25 7,-7 18,-7 25,0 5,5 7,14 3,20 5,-3 11,-4 16,-3l1 -1c-1,-6 0,-12 4,-17 -7,3 -15,2 -20,-3 -7,-7 -7,-18 0,-25 7,-7 18,-7 25,0 5,5 7,14 3,20 5,-3 11,-4 17,-4l1 -1c-1,-6 0,-12 4,-17 -7,3 -15,2 -20,-3 -7,-7 -7,-18 0,-25 7,-7 18,-7 25,0 5,5 7,14 3,20 5,-3 11,-4 17,-4l0 0c-1,-6 0,-12 4,-17 -7,3 -15,2 -20,-3 -7,-7 -7,-18 0,-25 7,-7 18,-7 25,0 6,6 7,14 3,21 5,-3 11,-4 16,-3l1 -1c-1,-6 0,-12 4,-17 -7,3 -15,2 -20,-3 -7,-7 -7,-18 0,-25 7,-7 18,-7 25,0 5,5 7,14 3,20 5,-3 11,-4 17,-4l1 -1c-1,-6 0,-12 4,-17 -7,3 -15,2 -20,-3 -7,-7 -7,-18 0,-25 7,-7 18,-7 25,0 5,5 7,14 3,20 5,-3 11,-4 17,-4l1 -1c-1,-6 0,-12 4,-17 -7,3 -15,2 -20,-3 -7,-7 -7,-18 0,-25 7,-7 18,-7 25,0 6,5 7,14 3,20 5,-3 11,-4 17,-4l1 -1c-1,-6 0,-11 4,-16 -7,3 -15,2 -20,-3 -7,-7 -7,-18 0,-25 7,-7 18,-7 25,0 5,5 7,14 3,20 5,-3 11,-4 17,-4l1 -1c-1,-6 0,-12 4,-17 -7,3 -15,2 -20,-3 -7,-7 -7,-18 0,-25 7,-7 18,-7 25,0 5,5 7,14 3,20 5,-3 11,-4 17,-4l1 -1c-1,-6 0,-12 4,-17 -7,3 -15,2 -20,-3 -7,-7 -7,-18 0,-25 7,-7 18,-7 25,0 5,5 7,14 3,20 5,-3 11,-4 17,-4l1 -1c-1,-6 0,-12 4,-17 -7,3 -15,2 -20,-3 -7,-7 -7,-18 0,-25 7,-7 18,-7 25,0 5,6 7,14 3,20 5,-3 11,-4 17,-4l1 -1c-1,-6 0,-12 4,-17 -7,3 -15,2 -20,-3 -7,-7 -7,-18 0,-25 7,-7 18,-7 25,0 5,5 7,14 3,20 5,-3 11,-4 17,-4l1 -1c-1,-6 0,-12 4,-17 -7,3 -15,2 -20,-3 -7,-7 -7,-18 0,-25 7,-7 18,-7 25,0 5,5 7,14 3,20 5,-3 11,-4 17,-4l1 -1c-1,-6 0,-11 4,-16 -7,3 -15,2 -20,-3 -7,-7 -7,-18 0,-25 7,-7 18,-7 25,0 5,5 7,14 3,20 5,-3 11,-5 17,-4l0 0c-1,-6 0,-12 4,-17 -7,3 -15,2 -20,-3 -7,-7 -7,-18 0,-25 7,-7 18,-7 25,0 5,6 7,14 3,20 5,-3 11,-4 17,-4l1 -1c-1,-6 0,-11 3,-16 -7,3 -15,2 -20,-3 -7,-7 -7,-18 0,-25 7,-7 18,-7 25,0 5,5 7,14 3,20 5,-3 11,-5 17,-4l0 0c-1,-6 0,-12 4,-17 -7,3 -15,2 -20,-3 -7,-7 -7,-18 0,-25 7,-7 18,-7 25,0 6,5 7,14 3,20 5,-3 11,-4 16,-4l1 -1c-1,-6 0,-12 4,-17 -7,3 -15,2 -20,-3 -7,-7 -7,-18 0,-25 7,-7 18,-7 25,0 6,5 7,14 3,20 5,-3 11,-4 16,-3l1 -1c-1,-6 0,-12 4,-17 -7,3 -15,2 -20,-3 -7,-7 -7,-18 0,-25 7,-7 18,-7 25,0 6,5 7,14 3,20 5,-3 11,-4 17,-4l1 -1c-1,-6 0,-12 4,-17 -7,3 -15,2 -20,-3 -7,-7 -7,-18 0,-25 7,-7 18,-7 25,0 6,5 7,14 3,20 5,-3 11,-4 17,-4l1 -1c-1,-6 0,-12 4,-17zm-599 543c-7,7 -18,7 -25,0 -7,-7 -7,-18 0,-25 7,-7 18,-7 25,0 7,7 7,18 0,25zm-29 -28c-7,7 -18,7 -25,0 -7,-7 -7,-18 0,-25 7,-7 18,-7 25,0 7,7 7,18 0,25zm-29 -28c-7,7 -18,7 -25,0 -7,-7 -7,-18 0,-25 7,-7 18,-7 25,0 7,7 7,18 0,25zm-28 -29c-7,7 -18,7 -25,0 -7,-7 -7,-18 0,-25 7,-7 18,-7 25,0 7,7 7,18 0,25zm-29 -29c-7,7 -18,7 -25,0 -7,-7 -7,-18 0,-25 7,-7 18,-7 25,0 7,7 7,18 0,25zm-29 -28c-7,7 -18,7 -25,0 -7,-7 -7,-18 0,-25 7,-7 18,-7 25,0 7,7 7,18 0,25zm-28 -29c-7,7 -18,7 -25,0 -7,-7 -7,-18 0,-25 7,-7 18,-7 25,0 7,7 7,18 0,25zm-28 -28c-7,7 -18,7 -25,0 -7,-7 -7,-18 0,-25 7,-7 18,-7 25,0 7,7 7,18 0,25zm-28 -28c-7,7 -18,7 -25,0 -7,-7 -7,-18 0,-25 7,-7 18,-7 25,0 7,7 7,18 0,25zm-29 -28c-7,7 -18,7 -25,0 -7,-7 -7,-18 0,-25 7,-7 18,-7 25,0 7,7 7,18 0,25zm-28 -29c-7,7 -18,7 -25,0 -7,-7 -7,-18 0,-25 7,-7 18,-7 25,0 7,7 7,18 0,25zm-28 -28c-7,7 -18,7 -25,0 -7,-7 -7,-18 0,-25 7,-7 18,-7 25,0 7,7 7,18 0,25zm-29 -28c-7,7 -18,7 -25,0 -7,-7 -7,-18 0,-25 7,-7 18,-7 25,0 7,7 7,18 0,25zm-28 -28c-7,7 -18,7 -25,0 -7,-7 -7,-18 0,-25 7,-7 18,-7 25,0 7,7 7,18 0,25zm-28 -29c-7,7 -18,7 -25,0 -7,-7 -7,-18 0,-25 7,-7 18,-7 25,0 7,7 7,18 0,25zm-28 -28c-7,7 -18,7 -25,0 -7,-7 -7,-18 0,-25 7,-7 18,-7 25,0 7,7 7,18 0,25zm-28 -28c-7,7 -18,7 -25,0 -7,-7 -7,-18 0,-25 7,-7 18,-7 25,0 7,7 7,18 0,25zm-29 -29c-7,7 -18,7 -25,0 -7,-7 -7,-18 0,-25 7,-7 18,-7 25,0 7,7 7,18 0,25zm512 455c-6,6 -16,6 -22,0 -6,-6 -6,-16 0,-22 6,-6 16,-6 22,0 6,6 6,16 0,22zm-28 -28c-6,6 -16,6 -22,0 -6,-6 -6,-16 0,-22 6,-6 16,-6 22,0 6,6 6,16 0,22zm-29 -29c-6,6 -16,6 -22,0 -6,-6 -6,-16 0,-22 6,-6 16,-6 22,0 6,6 6,16 0,22zm-28 -28c-6,6 -16,6 -22,0 -6,-6 -6,-16 0,-22 6,-6 16,-6 22,0 6,6 6,16 0,22zm-29 -28c-6,6 -16,6 -22,0 -6,-6 -6,-16 0,-22 6,-6 16,-6 22,0 6,6 6,16 0,22zm-28 -28c-6,6 -16,6 -22,0 -6,-6 -6,-16 0,-22 6,-6 16,-6 22,0 6,6 6,16 0,22zm-28 -28c-6,6 -16,6 -22,0 -6,-6 -6,-16 0,-22 6,-6 16,-6 22,0 6,6 6,16 0,22zm-28 -28c-6,6 -16,6 -22,0 -6,-6 -6,-16 0,-22 6,-6 16,-6 22,0 6,6 6,16 0,22zm-29 -29c-6,6 -16,6 -22,0 -6,-6 -6,-16 0,-22 6,-6 16,-6 22,0 6,6 6,16 0,22zm-29 -29c-6,6 -16,6 -22,0 -6,-6 -6,-16 0,-22 6,-6 16,-6 22,0 6,6 6,16 0,22zm-29 -29c-6,6 -16,6 -22,0 -6,-6 -6,-16 0,-22 6,-6 16,-6 22,0 6,6 6,16 0,22zm-28 -28c-6,6 -16,6 -22,0 -6,-6 -6,-16 0,-22 6,-6 16,-6 22,0 6,6 6,16 0,22zm-29 -29c-6,6 -16,6 -22,0 -6,-6 -6,-16 0,-22 6,-6 16,-6 22,0 6,6 6,16 0,22zm-29 -29c-6,6 -16,6 -22,0 -6,-6 -6,-16 0,-22 6,-6 16,-6 22,0 6,6 6,16 0,22zm-28 -28c-6,6 -16,6 -22,0 -6,-6 -6,-16 0,-22 6,-6 16,-6 22,0 6,6 6,16 0,22zm-28 -28c-6,6 -16,6 -22,0 -6,-6 -6,-16 0,-22 6,-6 16,-6 22,0 6,6 6,16 0,22zm-29 -29c-6,6 -16,6 -22,0 -6,-6 -6,-16 0,-22 6,-6 16,-6 22,0 6,6 6,16 0,22zm-29 -29c-6,6 -16,6 -22,0 -6,-6 -6,-16 0,-22 6,-6 16,-6 22,0 6,6 6,16 0,22zm-29 -29c-6,6 -16,6 -22,0 -6,-6 -6,-16 0,-22 6,-6 16,-6 22,0 6,6 6,16 0,22zm542 484c-6,6 -16,6 -22,0 -6,-6 -6,-16 0,-22 6,-6 16,-6 22,0 6,6 6,16 0,22zm-477 -476c6,-5 14,-5 20,0 6,6 6,14 0,20 -6,6 -14,6 -20,0 -5,-6 -5,-14 0,-20zm-29 -9c-6,-6 -6,-14 0,-20 6,-5 14,-5 20,0 6,6 6,14 0,20 -6,6 -14,6 -20,0zm57 37c6,-6 14,-6 20,0 6,5 6,14 0,20 -6,5 -14,5 -20,0 -6,-6 -6,-14 0,-20zm28 28c6,-5 14,-5 20,0 6,6 6,14 0,20 -5,5 -14,5 -20,0 -6,-6 -6,-14 0,-20zm304 304c-5,5 -13,5 -18,0 -5,-5 -5,-13 0,-18 5,-5 13,-5 18,0 5,5 5,13 0,18zm28 10c5,5 5,13 0,18 -5,5 -13,5 -18,0 -5,-5 -5,-13 0,-18 5,-5 13,-5 18,0zm-189 -153c-5,-5 -5,-13 0,-18 5,-5 13,-5 18,0 5,5 5,13 0,18 -5,5 -13,5 -18,0zm132 114c-5,5 -13,5 -18,0 -5,-5 -5,-13 0,-18 5,-5 13,-5 18,0 5,5 5,13 0,18zm-28 -28c-5,5 -13,5 -18,0 -5,-5 -5,-13 0,-18 5,-5 13,-5 18,0 5,5 5,13 0,18zm-28 -28c-5,5 -13,5 -18,0 -5,-5 -5,-13 0,-18 5,-5 13,-5 18,0 5,5 5,13 0,18zm-29 -29c-5,5 -13,5 -18,0 -5,-5 -5,-13 0,-18 5,-5 13,-5 18,0 5,5 5,13 0,18zm-57 -57c-5,5 -13,5 -18,0 -5,-5 -5,-13 0,-18 5,-5 13,-5 18,0 5,5 5,13 0,18zm-29 -29c-5,5 -13,5 -18,0 -5,-5 -5,-13 0,-18 5,-5 13,-5 18,0 5,5 5,13 0,18zm-29 -29c-5,5 -13,5 -18,0 -5,-5 -5,-13 0,-18 5,-5 13,-5 18,0 5,5 5,13 0,18zm-28 -28c-5,5 -13,5 -18,0 -5,-5 -5,-13 0,-18 5,-5 13,-5 18,0 5,5 5,13 0,18zm294 295c6,-6 14,-6 20,0 6,5 6,14 0,20 -5,5 -14,5 -20,0 -6,-6 -6,-14 0,-20zm28 28c5,-6 14,-6 20,0 5,6 5,14 0,20 -6,6 -14,6 -20,0 -6,-6 -6,-14 0,-20zm-463 -464c-6,6 -16,6 -22,0 -6,-6 -6,-16 0,-22 6,-6 16,-6 22,0 6,6 6,16 0,22zm541 485c-6,6 -16,6 -22,0 -6,-6 -6,-16 0,-22 6,-6 16,-6 22,0 6,6 6,16 0,22zm-87 -87c-5,5 -13,5 -18,0 -5,-5 -5,-13 0,-18 5,-5 13,-5 18,0 5,5 5,13 0,18zm28 10c5,5 5,13 0,18 -5,5 -13,5 -18,0 -5,-5 -5,-13 0,-18 5,-5 13,-5 18,0zm-57 -39c-5,5 -13,5 -18,0 -5,-5 -5,-13 0,-18 5,-5 13,-5 18,0 5,5 5,13 0,18zm-29 -29c-5,5 -13,5 -18,0 -5,-5 -5,-13 0,-18 5,-5 13,-5 18,0 5,5 5,13 0,18zm-28 -28c-5,5 -13,5 -18,0 -5,-5 -5,-13 0,-18 5,-5 13,-5 18,0 5,5 5,13 0,18zm-28 -28c-5,5 -13,5 -18,0 -5,-5 -5,-13 0,-18 5,-5 13,-5 18,0 5,5 5,13 0,18zm-28 -28c-5,5 -13,5 -18,0 -5,-5 -5,-13 0,-18 5,-5 13,-5 18,0 5,5 5,13 0,18zm-28 -28c-5,5 -13,5 -18,0 -5,-5 -5,-13 0,-18 5,-5 13,-5 18,0 5,5 5,13 0,18zm-29 -29c-5,5 -13,5 -18,0 -5,-5 -5,-13 0,-18 5,-5 13,-5 18,0 5,5 5,13 0,18zm-28 -28c-5,5 -13,5 -18,0 -5,-5 -5,-13 0,-18 5,-5 13,-5 18,0 5,5 5,13 0,18zm-29 -29c-5,5 -13,5 -18,0 -5,-5 -5,-13 0,-18 5,-5 13,-5 18,0 5,5 5,13 0,18zm-28 -28c-5,5 -13,5 -18,0 -5,-5 -5,-13 0,-18 5,-5 13,-5 18,0 5,5 5,13 0,18zm-28 -28c-5,5 -13,5 -18,0 -5,-5 -5,-13 0,-18 5,-5 13,-5 18,0 5,5 5,13 0,18zm-28 -29c-5,5 -13,5 -18,0 -5,-5 -5,-13 0,-18 5,-5 13,-5 18,0 5,5 5,13 0,18zm-29 -29c-5,5 -13,5 -18,0 -5,-5 -5,-13 0,-18 5,-5 13,-5 18,0 5,5 5,13 0,18zm-27 -28c-6,5 -14,5 -20,0 -5,-6 -5,-14 0,-20 6,-5 14,-5 20,0 6,5 6,14 0,20zm436 436c6,-5 14,-5 20,0 5,6 5,14 0,20 -6,5 -14,5 -20,0 -6,-6 -6,-14 0,-20zm-464 -463c-6,6 -16,6 -22,0 -6,-6 -6,-16 0,-22 6,-6 16,-6 22,0 6,6 6,16 0,22zm542 483c-6,6 -16,6 -22,0 -6,-6 -6,-16 0,-22 6,-6 16,-6 22,0 6,6 6,16 0,22zm-430 -430c-4,4 -11,4 -15,0 -4,-4 -4,-11 0,-15 4,-4 11,-4 15,0 4,4 4,11 0,15zm342 327c4,4 4,11 0,15 -4,4 -11,4 -15,0 -4,-4 -4,-11 0,-15 4,-4 11,-4 15,0zm-329 -313c4,-4 11,-4 15,0 4,4 4,11 0,15 -4,4 -11,4 -15,0 -4,-4 -4,-11 0,-15zm101 85c4,4 4,11 0,15 -4,4 -11,4 -15,0 -4,-4 -4,-11 0,-15 4,-4 11,-4 15,0zm-72 -57c4,-4 11,-4 15,0 4,4 4,11 0,15 -4,4 -11,4 -15,0 -4,-4 -4,-11 0,-15zm28 28c4,-4 11,-4 15,0 4,4 4,11 0,15 -4,4 -11,4 -15,0 -4,-4 -4,-11 0,-15zm57 57c4,-4 11,-4 15,0 4,4 4,11 0,15 -4,4 -11,4 -15,0 -4,-4 -4,-11 0,-15zm29 29c4,-4 11,-4 15,0 4,4 4,11 0,15 -4,4 -11,4 -15,0 -4,-4 -4,-11 0,-15zm28 28c4,-4 11,-4 15,0 4,4 4,11 0,15 -4,4 -11,4 -15,0 -4,-4 -4,-11 0,-15zm29 29c4,-4 11,-4 15,0 4,4 4,11 0,15 -4,4 -11,4 -15,0 -4,-4 -4,-11 0,-15zm28 29c4,-4 11,-4 15,0 4,4 4,11 0,15 -4,4 -11,4 -15,0 -4,-4 -4,-11 0,-15zm29 29c4,-4 11,-4 15,0 4,4 4,11 0,15 -4,4 -11,4 -15,0 -4,-4 -4,-11 0,-15zm28 28c4,-4 11,-4 15,0 4,4 4,11 0,15 -4,4 -11,4 -15,0 -4,-4 -4,-11 0,-15zm56 56c5,-5 13,-5 18,0 5,5 5,13 0,18 -5,5 -13,5 -18,0 -5,-5 -5,-13 0,-18zm-381 -381c-5,5 -13,5 -18,0 -5,-5 -5,-13 0,-18 5,-5 13,-5 18,0 5,5 5,13 0,18zm-27 -27c-6,5 -14,5 -20,0 -6,-6 -6,-14 0,-20 6,-5 14,-5 20,0 6,5 6,14 0,20zm436 436c5,-6 14,-6 20,0 5,5 5,14 0,20 -6,5 -14,5 -20,0 -6,-6 -6,-14 0,-20zm-464 -464c-6,6 -16,6 -22,0 -6,-6 -6,-16 0,-22 6,-6 16,-6 22,0 6,6 6,16 0,22zm542 484c-6,6 -16,6 -22,0 -6,-6 -6,-16 0,-22 6,-6 16,-6 22,0 6,6 6,16 0,22zm-148 -147c-3,3 -8,3 -11,0 -3,-3 -3,-8 0,-11 3,-3 8,-3 11,0 3,3 3,8 0,11zm29 17c3,3 3,8 0,11 -3,3 -8,3 -11,0 -3,-3 -3,-8 0,-11 3,-3 8,-3 11,0zm-57 -46c-3,3 -8,3 -11,0 -3,-3 -3,-8 0,-11 3,-3 8,-3 11,0 3,3 3,8 0,11zm-28 -28c-3,3 -8,3 -11,0 -3,-3 -3,-8 0,-11 3,-3 8,-3 11,0 3,3 3,8 0,11zm-29 -29c-3,3 -8,3 -11,0 -3,-3 -3,-8 0,-11 3,-3 8,-3 11,0 3,3 3,8 0,11zm-29 -29c-3,3 -8,3 -11,0 -3,-3 -3,-8 0,-11 3,-3 8,-3 11,0 3,3 3,8 0,11zm-29 -29c-3,3 -8,3 -11,0 -3,-3 -3,-8 0,-11 3,-3 8,-3 11,0 3,3 3,8 0,11zm-28 -28c-3,3 -8,3 -11,0 -3,-3 -3,-8 0,-11 3,-3 8,-3 11,0 3,3 3,8 0,11zm-29 -29c-3,3 -8,3 -11,0 -3,-3 -3,-8 0,-11 3,-3 8,-3 11,0 3,3 3,8 0,11zm-28 -28c-3,3 -8,3 -11,0 -3,-3 -3,-8 0,-11 3,-3 8,-3 11,0 3,3 3,8 0,11zm-28 -28c-3,3 -8,3 -11,0 -3,-3 -3,-8 0,-11 3,-3 8,-3 11,0 3,3 3,8 0,11zm-26 -26c-4,4 -11,4 -15,0 -4,-4 -4,-11 0,-15 4,-4 11,-4 15,0 4,4 4,11 0,15zm327 327c4,-4 11,-4 15,0 4,4 4,11 0,15 -4,4 -11,4 -15,0 -4,-4 -4,-11 0,-15zm27 27c5,-5 13,-5 18,0 5,5 5,13 0,18 -5,5 -13,5 -18,0 -5,-5 -5,-13 0,-18zm-381 -381c-5,5 -13,5 -18,0 -5,-5 -5,-13 0,-18 5,-5 13,-5 18,0 5,5 5,13 0,18zm-27 -27c-6,6 -14,6 -20,0 -5,-6 -5,-14 0,-20 6,-6 14,-6 20,0 6,5 6,14 0,20zm436 436c6,-6 14,-6 20,0 5,5 5,14 0,20 -6,6 -14,6 -20,0 -6,-5 -6,-14 0,-20zm-464 -464c-6,6 -16,6 -22,0 -6,-6 -6,-16 0,-22 6,-6 16,-6 22,0 6,6 6,16 0,22zm35 -80c6,-6 16,-6 22,0 6,6 6,16 0,22 -6,6 -16,6 -22,0 -6,-6 -6,-16 0,-22zm272 273c-2,2 -6,2 -8,0 -2,-2 -2,-6 0,-8 2,-2 6,-2 8,0 2,2 2,6 0,8zm28 19c2,2 2,6 0,9 -2,2 -6,2 -9,0 -2,-2 -2,-6 0,-9 2,-2 6,-2 9,0zm-57 -48c-2,2 -6,2 -8,0 -2,-2 -2,-6 0,-8 2,-2 6,-2 8,0 2,2 2,6 0,8zm-28 -28c-2,2 -6,2 -8,0 -2,-2 -2,-6 0,-8 2,-2 6,-2 8,0 2,2 2,6 0,8zm-29 -29c-2,2 -6,2 -8,0 -2,-2 -2,-6 0,-8 2,-2 6,-2 8,0 2,2 2,6 0,8zm-55 -56c-3,3 -8,3 -11,0 -3,-3 -3,-8 0,-11 3,-3 8,-3 11,0 3,3 3,8 0,11zm-26 -27c-4,4 -11,4 -15,0 -4,-4 -4,-11 0,-15 4,-4 11,-4 15,0 4,4 4,11 0,15zm-28 -27c-5,5 -13,5 -18,0 -5,-5 -5,-13 0,-18 5,-5 13,-5 18,0 5,5 5,13 0,18zm-27 -28c-6,5 -14,5 -20,0 -6,-5 -6,-14 0,-20 6,-5 14,-5 20,0 5,6 5,14 0,20zm-79 -21c6,-6 16,-6 22,0 6,6 6,16 0,22 -6,6 -16,6 -22,0 -6,-6 -6,-16 0,-22zm477 476c-5,5 -13,5 -18,0 -5,-5 -5,-13 0,-18 5,-5 13,-5 18,0 5,5 5,13 0,18zm29 10c6,6 6,14 0,20 -5,5 -14,5 -20,0 -6,-5 -6,-14 0,-20 5,-6 14,-6 20,0zm-59 -39c-4,4 -11,4 -15,0 -4,-4 -4,-11 0,-15 4,-4 11,-4 15,0 4,4 4,11 0,15zm-30 -30c-3,3 -8,3 -11,0 -3,-3 -3,-8 0,-11 3,-3 8,-3 11,0 3,3 3,8 0,11zm-116 -116c-2,2 -6,2 -9,0 -2,-2 -2,-6 0,-9 2,-2 6,-2 9,0 2,2 2,6 0,9zm-28 -28c-2,2 -6,2 -9,0 -2,-2 -2,-6 0,-9 2,-2 6,-2 9,0 2,2 2,6 0,9zm-28 -28c-2,2 -6,2 -9,0 -2,-2 -2,-6 0,-9 2,-2 6,-2 9,0 2,2 2,6 0,9zm-28 -28c-2,2 -6,2 -9,0 -2,-2 -2,-6 0,-9 2,-2 6,-2 9,0 2,2 2,6 0,9zm-28 -28c-2,2 -6,2 -9,0 -2,-2 -2,-6 0,-9 2,-2 6,-2 9,0 2,2 2,6 0,9zm-55 -55c-3,3 -8,3 -11,0 -3,-3 -3,-8 0,-11 3,-3 8,-3 11,0 3,3 3,8 0,11zm-27 -26c-4,4 -11,4 -15,0 -4,-4 -4,-11 0,-15 4,-4 11,-4 15,0 4,4 4,11 0,15zm-27 -28c-5,5 -13,5 -18,0 -5,-5 -5,-13 0,-18 5,-5 13,-5 18,0 5,5 5,13 0,18zm-28 -27c-6,6 -14,6 -20,0 -6,-5 -6,-14 0,-20 5,-5 14,-5 20,0 5,6 5,14 0,20zm485 485c-6,6 -16,6 -22,0 -6,-6 -6,-16 0,-22 6,-6 16,-6 22,0 6,6 6,16 0,22zm29 -29c-6,6 -16,6 -22,0 -6,-6 -6,-16 0,-22 6,-6 16,-6 22,0 6,6 6,16 0,22zm-103 -104c4,-4 11,-4 15,0 4,4 4,11 0,15 -4,4 -11,4 -15,0 -4,-4 -4,-11 0,-15zm-27 -15c-3,-3 -3,-8 0,-11 3,-3 8,-3 11,0 3,3 3,8 0,11 -3,3 -8,3 -11,0zm53 42c5,-5 13,-5 18,0 5,5 5,13 0,18 -5,5 -13,5 -18,0 -5,-5 -5,-13 0,-18zm28 28c6,-6 14,-6 20,0 6,6 6,14 0,20 -5,5 -14,5 -20,0 -6,-6 -6,-14 0,-20zm-104 -104c-16,16 -42,16 -58,0 -16,-16 -16,-42 0,-58 16,-16 42,-16 58,0 16,16 16,42 0,58zm-264 -321c4,-4 11,-4 15,0 4,4 4,11 0,15 -4,4 -11,4 -15,0 -4,-4 -4,-11 0,-15zm-30 -12c-5,-5 -5,-13 0,-18 5,-5 13,-5 18,0 5,5 5,13 0,18 -5,5 -13,5 -18,0zm60 43c3,-3 8,-3 11,0 3,3 3,8 0,11 -3,3 -8,3 -11,0 -3,-3 -3,-8 0,-11zm124 124c-2,2 -6,2 -8,0 -2,-2 -2,-6 0,-8 2,-2 6,-2 8,0 2,2 2,6 0,8zm29 21c2,2 2,6 0,9 -2,2 -6,2 -8,0 -2,-2 -2,-6 0,-9 2,-2 6,-2 8,0zm-57 -49c-2,2 -6,2 -8,0 -2,-2 -2,-6 0,-8 2,-2 6,-2 8,0 2,2 2,6 0,8zm-29 -29c-2,2 -6,2 -8,0 -2,-2 -2,-6 0,-8 2,-2 6,-2 8,0 2,2 2,6 0,8zm105 105c2,-2 6,-2 9,0 2,2 2,6 0,8 -2,2 -6,2 -9,0 -2,-2 -2,-6 0,-8zm124 113c3,3 3,8 0,11 -3,3 -8,3 -11,0 -3,-3 -3,-8 0,-11 3,-3 8,-3 11,0zm15 26c4,-4 11,-4 15,0 4,4 4,11 0,15 -4,4 -11,4 -15,0 -4,-4 -4,-11 0,-15zm27 27c5,-5 13,-5 18,0 5,5 5,13 0,18 -5,5 -13,5 -18,0 -5,-5 -5,-13 0,-18zm28 28c6,-5 14,-5 20,0 6,6 6,14 0,20 -6,6 -14,6 -20,0 -5,-5 -5,-14 0,-20zm-436 -436c-5,5 -14,5 -20,0 -6,-6 -6,-14 0,-20 6,-6 14,-6 20,0 6,5 6,14 0,20zm485 485c-6,6 -16,6 -22,0 -6,-6 -6,-16 0,-22 6,-6 16,-6 22,0 6,6 6,16 0,22zm-513 -513c-6,6 -16,6 -22,0 -6,-6 -6,-16 0,-22 6,-6 16,-6 22,0 6,6 6,16 0,22zm541 484c-6,6 -16,6 -22,0 -6,-6 -6,-16 0,-22 6,-6 16,-6 22,0 6,6 6,16 0,22zm-328 -328c2,-2 6,-2 8,0 2,2 2,6 0,8 -2,2 -6,2 -8,0 -2,-2 -2,-6 0,-8zm-29 -20c-2,-2 -2,-6 0,-8 2,-2 6,-2 8,0 2,2 2,6 0,8 -2,2 -6,2 -8,0zm57 48c2,-2 6,-2 8,0 2,2 2,6 0,8 -2,2 -6,2 -8,0 -2,-2 -2,-6 0,-8zm29 29c2,-2 6,-2 8,0 2,2 2,6 0,8 -2,2 -6,2 -8,0 -2,-2 -2,-6 0,-8zm28 28c2,-2 6,-2 9,0 2,2 2,6 0,8 -2,2 -6,2 -9,0 -2,-2 -2,-6 0,-9zm29 29c2,-2 6,-2 8,0 2,2 2,6 0,8 -2,2 -6,2 -8,0 -2,-2 -2,-6 0,-8zm28 28c2,-2 6,-2 8,0 2,2 2,6 0,8 -2,2 -6,2 -8,0 -2,-2 -2,-6 0,-8zm29 29c2,-2 6,-2 9,0 2,2 2,6 0,9 -2,2 -6,2 -9,0 -2,-2 -2,-6 0,-9zm27 27c3,-3 8,-3 11,0 3,3 3,8 0,11 -3,3 -8,3 -11,0 -3,-3 -3,-8 0,-11zm-274 -274c-3,3 -8,3 -11,0 -3,-3 -3,-8 0,-11 3,-3 8,-3 11,0 3,3 3,8 0,11zm-26 -26c-4,4 -11,4 -15,0 -4,-4 -4,-11 0,-15 4,-4 11,-4 15,0 4,4 4,11 0,15zm327 327c4,-4 11,-4 15,0 4,4 4,11 0,15 -4,4 -11,4 -15,0 -4,-4 -4,-11 0,-15zm27 27c5,-5 13,-5 18,0 5,5 5,13 0,18 -5,5 -13,5 -18,0 -5,-5 -5,-13 0,-18zm-381 -381c-5,5 -13,5 -18,0 -5,-5 -5,-13 0,-18 5,-5 13,-5 18,0 5,5 5,13 0,18zm-27 -27c-6,5 -14,5 -20,0 -6,-6 -6,-14 0,-20 6,-6 14,-6 20,0 6,5 6,14 0,20zm436 436c6,-5 14,-5 20,0 6,6 6,14 0,20 -5,6 -14,6 -20,0 -5,-6 -5,-14 0,-20zm-464 -464c-6,6 -16,6 -22,0 -6,-6 -6,-16 0,-22 6,-6 16,-6 22,0 6,6 6,16 0,22zm541 484c-6,6 -16,6 -22,0 -6,-6 -6,-16 0,-22 6,-6 16,-6 22,0 6,6 6,16 0,22zm-328 -329c2,-2 6,-2 8,0 2,2 2,6 0,8 -2,2 -6,2 -8,0 -2,-2 -2,-6 0,-8zm-29 -20c-2,-2 -2,-6 0,-8 2,-2 6,-2 8,0 2,2 2,6 0,8 -2,2 -6,2 -8,0zm57 48c2,-2 6,-2 8,0 2,2 2,6 0,9 -2,2 -6,2 -8,0 -2,-2 -2,-6 0,-9zm29 29c2,-2 6,-2 8,0 2,2 2,6 0,8 -2,2 -6,2 -8,0 -2,-2 -2,-6 0,-8zm28 28c2,-2 6,-2 8,0 2,2 2,6 0,9 -2,2 -6,2 -8,0 -2,-2 -2,-6 0,-9zm29 29c2,-2 6,-2 8,0 2,2 2,6 0,8 -2,2 -6,2 -8,0 -2,-2 -2,-6 0,-8zm28 28c2,-2 6,-2 8,0 2,2 2,6 0,8 -2,2 -6,2 -8,0 -2,-2 -2,-6 0,-8zm29 29c2,-2 6,-2 9,0 2,2 2,6 0,9 -2,2 -6,2 -9,0 -2,-2 -2,-6 0,-9zm27 27c3,-3 8,-3 11,0 3,3 3,8 0,11 -3,3 -8,3 -11,0 -3,-3 -3,-8 0,-11zm-274 -274c-3,3 -8,3 -11,0 -3,-3 -3,-8 0,-11 3,-3 8,-3 11,0 3,3 3,8 0,11zm-26 -27c-4,4 -11,4 -15,0 -4,-4 -4,-11 0,-15 4,-4 11,-4 15,0 4,4 4,11 0,15zm327 327c4,-4 11,-4 15,0 4,4 4,11 0,15 -4,4 -11,4 -15,0 -4,-4 -4,-11 0,-15zm27 27c5,-5 13,-5 18,0 5,5 5,13 0,18 -5,5 -13,5 -18,0 -5,-5 -5,-13 0,-18zm-381 -381c-5,5 -13,5 -18,0 -5,-5 -5,-13 0,-18 5,-5 13,-5 18,0 5,5 5,13 0,18zm-27 -27c-5,5 -14,5 -20,0 -6,-6 -6,-14 0,-20 6,-6 14,-6 20,0 6,5 6,14 0,20zm436 436c6,-5 14,-5 20,0 6,5 6,14 0,20 -6,5 -14,5 -20,0 -6,-6 -6,-15 0,-20zm-464 -463c-6,6 -16,6 -22,0 -6,-6 -6,-16 0,-22 6,-6 16,-6 22,0 6,6 6,16 0,22zm542 483c-6,6 -16,6 -22,0 -6,-6 -6,-16 0,-22 6,-6 16,-6 22,0 6,6 6,16 0,22zm-329 -328c2,-2 6,-2 8,0 2,2 2,6 0,8 -2,2 -6,2 -8,0 -2,-2 -2,-6 0,-8zm-29 -20c-2,-2 -2,-6 0,-8 2,-2 6,-2 8,0 2,2 2,6 0,8 -2,2 -6,2 -8,0zm57 48c2,-2 6,-2 8,0 2,2 2,6 0,9 -2,2 -6,2 -8,0 -2,-2 -2,-6 0,-9zm29 29c2,-2 6,-2 9,0 2,2 2,6 0,8 -2,2 -6,2 -9,0 -2,-2 -2,-6 0,-8zm28 28c2,-2 6,-2 8,0 2,2 2,6 0,8 -2,2 -6,2 -9,0 -2,-2 -2,-6 0,-8zm29 29c2,-2 6,-2 9,0 2,2 2,6 0,9 -2,2 -6,2 -9,0 -2,-2 -2,-6 0,-9zm28 28c2,-2 6,-2 8,0 2,2 2,6 0,9 -2,2 -6,2 -8,0 -2,-2 -2,-6 0,-9zm28 29c2,-2 6,-2 9,0 2,2 2,6 0,9 -2,2 -6,2 -9,0 -2,-2 -2,-6 0,-9zm28 27c3,-3 8,-3 11,0 3,3 3,8 0,11 -3,3 -8,3 -11,0 -3,-3 -3,-8 0,-11zm-274 -274c-3,3 -8,3 -11,0 -3,-3 -3,-8 0,-11 3,-3 8,-3 11,0 3,3 3,8 0,11zm-26 -27c-4,4 -11,4 -15,0 -4,-4 -4,-11 0,-15 4,-4 11,-4 15,0 4,4 4,11 0,15zm327 327c4,-4 11,-4 15,0 4,4 4,11 0,15 -4,4 -11,4 -15,0 -4,-4 -4,-11 0,-15zm27 27c5,-5 13,-5 18,0 5,5 5,13 0,18 -5,5 -13,5 -18,0 -5,-5 -5,-13 0,-18zm-381 -381c-5,5 -13,5 -18,0 -5,-5 -5,-13 0,-18 5,-5 13,-5 18,0 5,5 5,13 0,18zm-28 -27c-5,5 -14,5 -20,0 -6,-6 -6,-14 0,-20 6,-6 14,-6 20,0 6,5 6,14 0,20zm436 436c6,-6 14,-6 20,0 5,5 5,14 0,20 -6,6 -14,6 -20,0 -6,-5 -6,-14 0,-20zm-463 -464c-6,6 -16,6 -22,0 -6,-6 -6,-16 0,-22 6,-6 16,-6 22,0 6,6 6,16 0,22zm541 484c-6,6 -16,6 -22,0 -6,-6 -6,-16 0,-22 6,-6 16,-6 22,0 6,6 6,16 0,22zm-329 -328c2,-2 6,-2 8,0 2,2 2,6 0,8 -2,2 -6,2 -8,0 -2,-2 -2,-6 0,-8zm-29 -20c-2,-2 -2,-6 0,-8 2,-2 6,-2 8,0 2,2 2,6 0,8 -2,2 -6,2 -8,0zm57 48c2,-2 6,-2 8,0 2,2 2,6 0,8 -2,2 -6,2 -8,0 -2,-2 -2,-6 0,-8zm29 29c2,-2 6,-2 8,0 2,2 2,6 0,8 -2,2 -6,2 -8,0 -2,-2 -2,-6 0,-8zm28 28c2,-2 6,-2 8,0 2,2 2,6 0,8 -2,2 -6,2 -8,0 -2,-2 -2,-6 0,-8zm2 -57c2,-2 6,-2 9,0 2,2 2,6 0,8 -2,2 -6,2 -9,0 -2,-2 -2,-6 0,-8zm28 86c2,-2 6,-2 8,0 2,2 2,6 0,9 -2,2 -6,2 -8,0 -2,-2 -2,-6 0,-9zm28 28c2,-2 6,-2 8,0 2,2 2,6 0,9 -2,2 -6,2 -8,0 -2,-2 -2,-6 0,-9zm28 29c2,-2 6,-2 9,0 2,2 2,6 0,9 -2,2 -6,2 -9,0 -2,-2 -2,-6 0,-9zm28 27c3,-3 8,-3 11,0 3,3 3,8 0,11 -3,3 -8,3 -11,0 -3,-3 -3,-8 0,-11zm-274 -274c-3,3 -8,3 -11,0 -3,-3 -3,-8 0,-11 3,-3 8,-3 11,0 3,3 3,8 0,11zm-26 -26c-4,4 -11,4 -15,0 -4,-4 -4,-11 0,-15 4,-4 11,-4 15,0 4,4 4,11 0,15zm327 327c4,-4 11,-4 15,0 4,4 4,11 0,15 -4,4 -11,4 -15,0 -4,-4 -4,-11 0,-15zm27 27c5,-5 13,-5 18,0 5,5 5,13 0,18 -5,5 -13,5 -18,0 -5,-5 -5,-13 0,-18zm-381 -381c-5,5 -13,5 -18,0 -5,-5 -5,-13 0,-18 5,-5 13,-5 18,0 5,5 5,13 0,18zm-27 -27c-5,6 -14,6 -20,0 -5,-5 -5,-14 0,-20 6,-6 14,-6 20,0 6,6 6,14 0,20zm436 436c5,-6 14,-6 20,0 6,5 6,14 0,20 -6,5 -14,5 -20,0 -6,-5 -6,-14 0,-20zm-464 -464c-6,6 -16,6 -22,0 -6,-6 -6,-16 0,-22 6,-6 16,-6 22,0 6,6 6,16 0,22zm542 484c-6,6 -16,6 -22,0 -6,-6 -6,-16 0,-22 6,-6 16,-6 22,0 6,6 6,16 0,22zm-329 -328c2,-2 6,-2 9,0 2,2 2,6 0,8 -2,2 -6,2 -9,0 -2,-2 -2,-6 0,-8zm-29 -20c-2,-2 -2,-6 0,-8 2,-2 6,-2 8,0 2,2 2,6 0,8 -2,2 -6,2 -8,0zm57 48c2,-2 6,-2 8,0 2,2 2,6 0,9 -2,2 -6,2 -8,0 -2,-2 -2,-6 0,-9zm57 57c2,-2 6,-2 9,0 2,2 2,6 0,8 -2,2 -6,2 -9,0 -2,-2 -2,-6 0,-8zm29 29c2,-2 6,-2 8,0 2,2 2,6 0,9 -2,2 -6,2 -8,0 -2,-2 -2,-6 0,-9zm28 28c2,-2 6,-2 8,0 2,2 2,6 0,8 -2,2 -6,2 -8,0 -2,-2 -2,-6 0,-8zm28 29c2,-2 6,-2 9,0 2,2 2,6 0,9 -2,2 -6,2 -9,0 -2,-2 -2,-6 0,-9zm28 26c3,-3 8,-3 11,0 3,3 3,8 0,11 -3,3 -8,3 -11,0 -3,-3 -3,-8 0,-11zm-274 -274c-3,3 -8,3 -11,0 -3,-3 -3,-8 0,-11 3,-3 8,-3 11,0 3,3 3,8 0,11zm-26 -26c-4,4 -11,4 -15,0 -4,-4 -4,-11 0,-15 4,-4 11,-4 15,0 4,4 4,11 0,15zm327 327c4,-4 11,-4 15,0 4,4 4,11 0,15 -4,4 -11,4 -15,0 -4,-4 -4,-11 0,-15zm27 27c5,-5 13,-5 18,0 5,5 5,13 0,18 -5,5 -13,5 -18,0 -5,-5 -5,-13 0,-18zm-381 -381c-5,5 -13,5 -18,0 -5,-5 -5,-13 0,-18 5,-5 13,-5 18,0 5,5 5,13 0,18zm-28 -27c-5,6 -14,6 -20,0 -6,-5 -6,-14 0,-20 6,-6 14,-6 20,0 6,5 6,14 0,20zm436 436c6,-5 14,-5 20,0 6,6 6,14 0,20 -6,6 -14,6 -20,0 -6,-5 -6,-14 0,-20zm-463 -464c-6,6 -16,6 -22,0 -6,-6 -6,-16 0,-22 6,-6 16,-6 22,0 6,6 6,16 0,22zm541 484c-6,6 -16,6 -22,0 -6,-6 -6,-16 0,-22 6,-6 16,-6 22,0 6,6 6,16 0,22zm-404 -404c-3,3 -8,3 -11,0 -3,-3 -3,-8 0,-11 3,-3 8,-3 11,0 3,3 3,8 0,11zm285 274c3,3 3,8 0,11 -3,3 -8,3 -11,0 -3,-3 -3,-8 0,-11 3,-3 8,-3 11,0zm-311 -300c-4,4 -11,4 -15,0 -4,-4 -4,-11 0,-15 4,-4 11,-4 15,0 4,4 4,11 0,15zm327 327c4,-4 11,-4 15,0 4,4 4,11 0,15 -4,4 -11,4 -15,0 -4,-4 -4,-11 0,-15zm27 27c5,-5 13,-5 18,0 5,5 5,13 0,18 -5,5 -13,5 -18,0 -5,-5 -5,-13 0,-18zm-381 -381c-5,5 -13,5 -18,0 -5,-5 -5,-13 0,-18 5,-5 13,-5 18,0 5,5 5,13 0,18zm-27 -27c-6,6 -14,6 -20,0 -5,-6 -5,-14 0,-20 6,-5 14,-5 20,0 6,6 6,14 0,20zm436 436c6,-6 14,-6 20,0 6,5 6,14 0,20 -6,6 -14,6 -20,0 -6,-5 -6,-14 0,-20zm-464 -464c-6,6 -16,6 -22,0 -6,-6 -6,-16 0,-22 6,-6 16,-6 22,0 6,6 6,16 0,22zm541 484c-6,6 -16,6 -22,0 -6,-6 -6,-16 0,-22 6,-6 16,-6 22,0 6,6 6,16 0,22zm-147 -147c-3,3 -8,3 -11,0 -3,-3 -3,-8 0,-11 3,-3 8,-3 11,0 3,3 3,8 0,11zm29 17c3,3 3,8 0,11 -3,3 -8,3 -11,0 -3,-3 -3,-8 0,-11 3,-3 8,-3 11,0zm-57 -46c-3,3 -8,3 -11,0 -3,-3 -3,-8 0,-11 3,-3 8,-3 11,0 3,3 3,8 0,11zm-29 -29c-3,3 -8,3 -11,0 -3,-3 -3,-8 0,-11 3,-3 8,-3 11,0 3,3 3,8 0,11zm-29 -29c-3,3 -8,3 -11,0 -3,-3 -3,-8 0,-11 3,-3 8,-3 11,0 3,3 3,8 0,11zm-29 -29c-3,3 -8,3 -11,0 -3,-3 -3,-8 0,-11 3,-3 8,-3 11,0 3,3 3,8 0,11zm-28 -28c-3,3 -8,3 -11,0 -3,-3 -3,-8 0,-11 3,-3 8,-3 11,0 3,3 3,8 0,11zm-29 -29c-3,3 -8,3 -11,0 -3,-3 -3,-8 0,-11 3,-3 8,-3 11,0 3,3 3,8 0,11zm-28 -29c-3,3 -8,3 -11,0 -3,-3 -3,-8 0,-11 3,-3 8,-3 11,0 3,3 3,8 0,11zm-29 -28c-3,3 -8,3 -11,0 -3,-3 -3,-8 0,-11 3,-3 8,-3 11,0 3,3 3,8 0,11zm-29 -29c-3,3 -8,3 -11,0 -3,-3 -3,-8 0,-11 3,-3 8,-3 11,0 3,3 3,8 0,11zm-26 -27c-4,4 -11,4 -15,0 -4,-4 -4,-11 0,-15 4,-4 11,-4 15,0 4,4 4,11 0,15zm327 327c4,-4 11,-4 15,0 4,4 4,11 0,15 -4,4 -11,4 -15,0 -4,-4 -4,-11 0,-15zm27 27c5,-5 13,-5 18,0 5,5 5,13 0,18 -5,5 -13,5 -18,0 -5,-5 -5,-13 0,-18zm-381 -381c-5,5 -13,5 -18,0 -5,-5 -5,-13 0,-18 5,-5 13,-5 18,0 5,5 5,13 0,18zm-28 -27c-6,6 -14,6 -20,0 -5,-6 -5,-14 0,-20 6,-6 14,-6 20,0 6,5 6,14 0,20zm436 436c6,-6 14,-6 20,0 6,5 6,14 0,20 -6,6 -14,6 -20,0 -5,-5 -5,-14 0,-20zm-464 -464c-6,6 -16,6 -22,0 -6,-6 -6,-16 0,-22 6,-6 16,-6 22,0 6,6 6,16 0,22zm541 484c-6,6 -16,6 -22,0 -6,-6 -6,-16 0,-22 6,-6 16,-6 22,0 6,6 6,16 0,22zm-417 -417c4,-4 11,-4 15,0 4,4 4,11 0,15 -4,4 -11,4 -15,0 -4,-4 -4,-11 0,-15zm-28 -13c-4,-4 -4,-11 0,-15 4,-4 11,-4 15,0 4,4 4,11 0,15 -4,4 -11,4 -15,0zm57 41c4,-4 11,-4 15,0 4,4 4,11 0,15 -4,4 -11,4 -15,0 -4,-4 -4,-11 0,-15zm28 28c4,-4 11,-4 15,0 4,4 4,11 0,15 -4,4 -11,4 -15,0 -4,-4 -4,-11 0,-15zm29 29c4,-4 11,-4 15,0 4,4 4,11 0,15 -4,4 -11,4 -15,0 -4,-4 -4,-11 0,-15zm28 28c4,-4 11,-4 15,0 4,4 4,11 0,15 -4,4 -11,4 -15,0 -4,-4 -4,-11 0,-15zm29 29c4,-4 11,-4 15,0 4,4 4,11 0,15 -4,4 -11,4 -15,0 -4,-4 -4,-11 0,-15zm29 29c4,-4 11,-4 15,0 4,4 4,11 0,15 -4,4 -11,4 -15,0 -4,-4 -4,-11 0,-15zm28 28c4,-4 11,-4 15,0 4,4 4,11 0,15 -4,4 -11,4 -15,0 -4,-4 -4,-11 0,-15zm29 29c4,-4 11,-4 15,0 4,4 4,11 0,15 -4,4 -11,4 -15,0 -4,-4 -4,-11 0,-15zm28 28c4,-4 11,-4 15,0 4,4 4,11 0,15 -4,4 -11,4 -15,0 -4,-4 -4,-11 0,-15zm42 30c3,3 3,8 0,11 -3,3 -8,3 -11,0 -3,-3 -3,-8 0,-11 3,-3 8,-3 11,0zm15 27c4,-4 11,-4 15,0 4,4 4,11 0,15 -4,4 -11,4 -15,0 -4,-4 -4,-11 0,-15zm27 27c5,-5 13,-5 18,0 5,5 5,13 0,18 -5,5 -13,5 -18,0 -5,-5 -5,-13 0,-18zm-381 -381c-5,5 -13,5 -18,0 -5,-5 -5,-13 0,-18 5,-5 13,-5 18,0 5,5 5,13 0,18zm-27 -27c-6,6 -14,6 -20,0 -5,-6 -5,-14 0,-20 6,-6 14,-6 20,0 6,6 6,14 0,20zm436 436c6,-6 14,-6 20,0 6,6 6,14 0,20 -6,6 -14,6 -20,0 -6,-5 -6,-14 0,-20zm-464 -464c-6,6 -16,6 -22,0 -6,-6 -6,-16 0,-22 6,-6 16,-6 22,0 6,6 6,16 0,22zm541 484c-6,6 -16,6 -22,0 -6,-6 -6,-16 0,-22 6,-6 16,-6 22,0 6,6 6,16 0,22zm-104 -103c4,-4 11,-4 15,0 4,4 4,11 0,15 -4,4 -11,4 -15,0 -4,-4 -4,-11 0,-15zm-29 -14c-4,-4 -4,-11 0,-15 4,-4 11,-4 15,0 4,4 4,11 0,15 -4,4 -11,4 -15,0zm56 40c5,-5 13,-5 18,0 5,5 5,13 0,18 -5,5 -13,5 -18,0 -5,-5 -5,-13 0,-18zm-67 -67c-5,5 -13,5 -18,0 -5,-5 -5,-13 0,-18 5,-5 13,-5 18,0 5,5 5,13 0,18zm-29 -29c-5,5 -13,5 -18,0 -5,-5 -5,-13 0,-18 5,-5 13,-5 18,0 5,5 5,13 0,18zm-28 -28c-5,5 -13,5 -18,0 -5,-5 -5,-13 0,-18 5,-5 13,-5 18,0 5,5 5,13 0,18zm-29 -29c-5,5 -13,5 -18,0 -5,-5 -5,-13 0,-18 5,-5 13,-5 18,0 5,5 5,13 0,18zm-29 -29c-5,5 -13,5 -18,0 -5,-5 -5,-13 0,-18 5,-5 13,-5 18,0 5,5 5,13 0,18zm-29 -29c-5,5 -13,5 -18,0 -5,-5 -5,-13 0,-18 5,-5 13,-5 18,0 5,5 5,13 0,18zm-28 -28c-5,5 -13,5 -18,0 -5,-5 -5,-13 0,-18 5,-5 13,-5 18,0 5,5 5,13 0,18zm-29 -29c-5,5 -13,5 -18,0 -5,-5 -5,-13 0,-18 5,-5 13,-5 18,0 5,5 5,13 0,18zm-28 -28c-5,5 -13,5 -18,0 -5,-5 -5,-13 0,-18 5,-5 13,-5 18,0 5,5 5,13 0,18zm-29 -29c-5,5 -13,5 -18,0 -5,-5 -5,-13 0,-18 5,-5 13,-5 18,0 5,5 5,13 0,18zm-28 -28c-5,5 -13,5 -18,0 -5,-5 -5,-13 0,-18 5,-5 13,-5 18,0 5,5 5,13 0,18zm-29 -29c-5,5 -13,5 -18,0 -5,-5 -5,-13 0,-18 5,-5 13,-5 18,0 5,5 5,13 0,18zm-27 -27c-5,5 -14,5 -20,0 -6,-6 -6,-14 0,-20 6,-6 14,-6 20,0 6,5 6,14 0,20zm436 436c6,-6 14,-6 20,0 5,5 5,14 0,20 -6,6 -14,6 -20,0 -5,-5 -5,-14 0,-20zm-464 -464c-6,6 -16,6 -22,0 -6,-6 -6,-16 0,-22 6,-6 16,-6 22,0 6,6 6,16 0,22zm541 484c-6,6 -16,6 -22,0 -6,-6 -6,-16 0,-22 6,-6 16,-6 22,0 6,6 6,16 0,22zm-362 -362c5,-5 13,-5 18,0 5,5 5,13 0,18 -5,5 -13,5 -18,0 -5,-5 -5,-13 0,-18zm-28 -10c-5,-5 -5,-13 0,-18 5,-5 13,-5 18,0 5,5 5,13 0,18 -5,5 -13,5 -18,0zm57 39c5,-5 13,-5 18,0 5,5 5,13 0,18 -5,5 -13,5 -18,0 -5,-5 -5,-13 0,-18zm29 29c5,-5 13,-5 18,0 5,5 5,13 0,18 -5,5 -13,5 -18,0 -5,-5 -5,-13 0,-18zm217 217c-5,5 -13,5 -18,0 -5,-5 -5,-13 0,-18 5,-5 13,-5 18,0 5,5 5,13 0,18zm29 10c5,5 5,13 0,18 -5,5 -13,5 -18,0 -5,-5 -5,-13 0,-18 5,-5 13,-5 18,0zm-57 -39c-5,5 -13,5 -18,0 -5,-5 -5,-13 0,-18 5,-5 13,-5 18,0 5,5 5,13 0,18zm-28 -28c-5,5 -13,5 -18,0 -5,-5 -5,-13 0,-18 5,-5 13,-5 18,0 5,5 5,13 0,18zm-28 -28c-5,5 -13,5 -18,0 -5,-5 -5,-13 0,-18 5,-5 13,-5 18,0 5,5 5,13 0,18zm-28 -28c-5,5 -13,5 -18,0 -5,-5 -5,-13 0,-18 5,-5 13,-5 18,0 5,5 5,13 0,18zm-29 -29c-5,5 -13,5 -18,0 -5,-5 -5,-13 0,-18 5,-5 13,-5 18,0 5,5 5,13 0,18zm-47 -47c5,-5 13,-5 18,0 5,5 5,13 0,18 -5,5 -13,5 -18,0 -5,-5 -5,-13 0,-18zm227 227c6,-6 14,-6 20,0 5,5 5,14 0,20 -5,5 -14,5 -20,0 -6,-6 -6,-14 0,-20zm-436 -436c-6,6 -14,6 -20,0 -5,-6 -5,-14 0,-20 6,-6 14,-6 20,0 6,5 6,14 0,20zm27 9c5,5 5,13 0,18 -5,5 -13,5 -18,0 -5,-5 -5,-13 0,-18 5,-5 13,-5 18,0zm10 28c6,-6 14,-6 20,0 6,6 6,14 0,20 -5,6 -14,6 -20,0 -5,-6 -5,-14 0,-20zm28 28c5,-6 14,-6 20,0 5,6 5,14 0,20 -6,6 -14,6 -20,0 -6,-6 -6,-14 0,-20zm-93 -93c-6,6 -16,6 -22,0 -6,-6 -6,-16 0,-22 6,-6 16,-6 22,0 6,6 6,16 0,22zm542 484c-6,6 -16,6 -22,0 -6,-6 -6,-16 0,-22 6,-6 16,-6 22,0 6,6 6,16 0,22zm-28 -28c-6,6 -16,6 -22,0 -6,-6 -6,-16 0,-22 6,-6 16,-6 22,0 6,6 6,16 0,22zm-29 -29c-6,6 -16,6 -22,0 -6,-6 -6,-16 0,-22 6,-6 16,-6 22,0 6,6 6,16 0,22zm-28 -28c-6,6 -16,6 -22,0 -6,-6 -6,-16 0,-22 6,-6 16,-6 22,0 6,6 6,16 0,22zm-29 -29c-6,6 -16,6 -22,0 -6,-6 -6,-16 0,-22 6,-6 16,-6 22,0 6,6 6,16 0,22zm-28 -28c-6,6 -16,6 -22,0 -6,-6 -6,-16 0,-22 6,-6 16,-6 22,0 6,6 6,16 0,22zm-28 -28c-6,6 -16,6 -22,0 -6,-6 -6,-16 0,-22 6,-6 16,-6 22,0 6,6 6,16 0,22zm-28 -28c-6,6 -16,6 -22,0 -6,-6 -6,-16 0,-22 6,-6 16,-6 22,0 6,6 6,16 0,22zm-28 -28c-6,6 -16,6 -22,0 -6,-6 -6,-16 0,-22 6,-6 16,-6 22,0 6,6 6,16 0,22zm-29 -29c-6,6 -16,6 -22,0 -6,-6 -6,-16 0,-22 6,-6 16,-6 22,0 6,6 6,16 0,22zm-29 -29c-6,6 -16,6 -22,0 -6,-6 -6,-16 0,-22 6,-6 16,-6 22,0 6,6 6,16 0,22zm-28 -28c-6,6 -16,6 -22,0 -6,-6 -6,-16 0,-22 6,-6 16,-6 22,0 6,6 6,16 0,22zm-29 -29c-6,6 -16,6 -22,0 -6,-6 -6,-16 0,-22 6,-6 16,-6 22,0 6,6 6,16 0,22zm-29 -29c-6,6 -16,6 -22,0 -6,-6 -6,-16 0,-22 6,-6 16,-6 22,0 6,6 6,16 0,22zm-28 -28c-6,6 -16,6 -22,0 -6,-6 -6,-16 0,-22 6,-6 16,-6 22,0 6,6 6,16 0,22zm-28 -28c-6,6 -16,6 -22,0 -6,-6 -6,-16 0,-22 6,-6 16,-6 22,0 6,6 6,16 0,22zm-29 -29c-6,6 -16,6 -22,0 -6,-6 -6,-16 0,-22 6,-6 16,-6 22,0 6,6 6,16 0,22zm-29 -29c-6,6 -16,6 -22,0 -6,-6 -6,-16 0,-22 6,-6 16,-6 22,0 6,6 6,16 0,22zm-29 -29c-6,6 -16,6 -22,0 -6,-6 -6,-16 0,-22 6,-6 16,-6 22,0 6,6 6,16 0,22z"/>
  <path class="fil0" d="M1193 592c3,5 3,11 0,16 5,-3 11,-4 16,-3 -1,-3 -1,-6 0,-9l0 0c-5,1 -11,-1 -16,-4z"/>
 </g>
</svg>
