<?xml version="1.0" encoding="utf-8"?>
<!-- Generator: Adobe Illustrator 21.0.0, SVG Export Plug-In . SVG Version: 6.00 Build 0)  -->
<svg version="1.1" id="Layer_1" xmlns="http://www.w3.org/2000/svg" xmlns:xlink="http://www.w3.org/1999/xlink" x="0px" y="0px"
	 viewBox="0 0 10 10" style="enable-background:new 0 0 10 10;" xml:space="preserve">
<style type="text/css">
	.st0{fill:#0078C1;}
</style>
<title>quote-open</title>
<desc>Created with Sketch.</desc>
<g id="Page-7">
	<path id="quote-open" class="st0" d="M3.9,2C3.1,2.2,2.5,2.8,2.2,3.8C2,4.3,1.9,4.8,1.9,5.3c0,0.1,0,0.1,0,0.2c0,0,0,0.1,0,0.3h1.9
		v3.9H0.1V6.1c0-1.8,0.4-3.1,1.1-4.1s1.6-1.5,2.7-1.6V2z M9.9,2C9.2,2.1,8.8,2.5,8.4,3.1C8.1,3.8,7.9,4.5,7.9,5.3c0,0.1,0,0.1,0,0.2
		c0,0.1,0,0.1,0,0.2h1.9v3.9H6.1V6.1c0-1.4,0.3-2.7,0.9-3.8s1.6-1.7,2.9-1.9V2z"/>
</g>
</svg>
