<?xml version="1.0" encoding="utf-8"?>
<!-- Generator: Adobe Illustrator 21.0.0, SVG Export Plug-In . SVG Version: 6.00 Build 0)  -->
<svg version="1.1" id="Layer_1" xmlns="http://www.w3.org/2000/svg" xmlns:xlink="http://www.w3.org/1999/xlink" x="0px" y="0px"
	 viewBox="0 0 10 10" style="enable-background:new 0 0 10 10;" xml:space="preserve">
<style type="text/css">
	.st0{fill:#0078C1;}
</style>
<title>quote-close</title>
<desc>Created with Sketch.</desc>
<g id="Page-7">
	<path id="quote-close" class="st0" d="M6.1,8c0.8-0.2,1.4-0.7,1.7-1.8c0.2-0.5,0.2-1,0.2-1.5c0-0.1,0-0.1,0-0.2s0-0.1,0-0.3H6.1
		V0.4h3.8v3.6c0,1.8-0.4,3.1-1.1,4.1S7.2,9.5,6.1,9.6V8z M0.1,8c0.7-0.1,1.1-0.5,1.5-1.1s0.5-1.4,0.5-2.2c0-0.1,0-0.1,0-0.2
		c0-0.1,0-0.1,0-0.2H0.1V0.4h3.8v3.6c0,1.4-0.3,2.7-0.9,3.8S1.5,9.5,0.1,9.6V8z"/>
</g>
</svg>
