<?xml version="1.0" encoding="utf-8"?>
<!-- Generator: Adobe Illustrator 21.1.0, SVG Export Plug-In . SVG Version: 6.00 Build 0)  -->
<svg version="1.1" id="logo-element" xmlns="http://www.w3.org/2000/svg" xmlns:xlink="http://www.w3.org/1999/xlink" x="0px"
	 y="0px" viewBox="0 0 138.7 48.9" style="enable-background:new 0 0 138.7 48.9;" xml:space="preserve">
<style type="text/css">
	.stvu0{fill:none;stroke:#000000;stroke-width:0.12;}
	.stvu1{fill:url(#Path_2_);}
	.stvu2{fill:#FFFFFF;}
</style>
<title>logo-sydney</title>
<path id="Shape" class="stvu0" d="M0,37.7h138.6"/>
<polygon points="46.1,4.4 48.4,12.2 50.7,4.4 56.1,4.4 50.7,18.6 46.2,18.6 40.8,4.4 "/>
<rect x="57.1" y="4.4" width="5.1" height="14.2"/>
<path d="M73.5,9.8c-0.7-0.7-1.6-1.1-2.5-1.1c-1.5,0-2.8,1.2-2.8,2.7c0,0,0,0,0,0c0,0,0,0.1,0,0.1c0,1.5,1.2,2.8,2.7,2.8c0,0,0,0,0,0
	H71c0.9,0,1.8-0.3,2.6-0.9v5c-1,0.3-2.1,0.5-3.2,0.5c-4,0.1-7.3-3-7.4-6.9c0,0,0,0,0,0c0-0.1,0-0.2,0-0.3c-0.1-4.1,3.2-7.4,7.3-7.5
	c0,0,0,0,0,0l0,0c0.7,0,1.5,0.1,2.2,0.3c0.3,0.1,0.7,0.2,1,0.3L73.5,9.8z"/>
<polygon points="74.8,4.4 85.5,4.4 85.5,9 82.7,8.9 82.7,18.6 77.6,18.6 77.6,8.8 74.8,8.9 "/>
<path d="M85.9,11.5c0,4.4,3.1,7.4,7.7,7.4s7.7-3,7.7-7.4s-3.1-7.4-7.7-7.4S85.9,7.1,85.9,11.5z M93.6,8.7c1.4,0.1,2.6,1.3,2.5,2.7
	v0.1c0,1.7-1,2.9-2.5,2.9c-1.4,0-2.5-1.2-2.5-2.6c0,0,0,0,0,0c0-0.1,0-0.1,0-0.2c-0.1-1.5,0.9-2.8,2.4-2.9c0,0,0,0,0,0H93.6z"/>
<path d="M102.6,18.6h5.1v-3.8c-0.1-0.5-0.1-0.8-0.2-1.6c0.2,0.5,0.4,0.9,0.6,1.4l0.2,0.4l1.7,3.5h5.9l-3.7-5.5
	c1.7-0.5,2.8-2.1,2.6-3.8c0-2.8-2.3-4.8-5.5-4.8h-6.7V18.6z M107.7,8.2h0.7c0.7-0.1,1.3,0.4,1.4,1.1v0.1c0,0.7-0.5,1.3-1.2,1.3h-0.9
	V8.2z"/>
<rect x="117.1" y="4.4" width="5.1" height="14.2"/>
<path d="M122.9,18.6h5.3l0.5-1.8h3.9l0.5,1.8h5.3l-4.8-14.2h-5.8L122.9,18.6z M130.7,9.2l1.1,4.2h-2.2L130.7,9.2z"/>
<path d="M52.2,29.4c0,0.6-0.1,1.1-0.2,1.7c-0.5,1.9-2.3,3-5,3c-1.4,0-2.7-0.3-3.8-1.1c-1-0.9-1.5-2.2-1.4-3.6v-6.9h4V29
	c0,0.4,0,0.7,0.1,1.1c0.2,0.4,0.6,0.6,1,0.6c0.2,0,0.5-0.1,0.7-0.2c0.3-0.2,0.4-0.5,0.4-1.4v-6.6h4.2V29.4z"/>
<polygon points="53.6,22.4 57.6,22.4 61.1,28.3 61.1,22.4 65.1,22.4 65.1,33.7 60.9,33.7 57.6,28.3 57.6,33.7 53.6,33.7 "/>
<rect x="66.4" y="22.4" width="4" height="11.3"/>
<polygon points="75.2,22.4 77,28.8 78.9,22.4 83.1,22.4 78.8,33.7 75.3,33.7 70.9,22.4 "/>
<polygon points="83.6,22.4 91.1,22.4 91.1,25.5 87.6,25.5 87.6,26.6 90.8,26.6 90.8,29.5 87.6,29.5 87.6,30.6 91.2,30.6 91.2,33.7
	83.6,33.7 "/>
<path d="M92.2,33.7h4.1v-3c0-0.4-0.1-0.8-0.2-1.2c0.2,0.6,0.4,0.8,0.5,1.1l0.2,0.3l1.4,2.8h4.7l-2.9-4.4c1.3-0.4,2.2-1.6,2.1-3
	c0-2.2-1.8-3.8-4.4-3.8h-5.3v11.2H92.2z M96.3,25.5h0.5c0.6,0,1,0.4,1,1s-0.4,1-1,1h-0.5V25.5z"/>
<path d="M104,29.8c0.8,0.7,1.8,1.1,2.8,1.2c0.6,0,1-0.3,1-0.7c0-0.2-0.2-0.4-0.4-0.5c-0.1-0.1-0.3-0.1-0.9-0.2
	c-0.4-0.1-0.9-0.2-1.3-0.3c-1.3-0.4-2.1-1.6-2-2.9c0-2.3,2-4,4.8-4c1.3,0,2.6,0.3,3.7,1l-1.1,2.9c-0.6-0.6-1.5-0.9-2.3-0.9
	c-0.6,0-0.9,0.2-0.9,0.6c0,0.3,0.2,0.5,0.9,0.6l0.7,0.2c0.6,0.1,1.1,0.3,1.6,0.6c1,0.6,1.5,1.6,1.5,2.7c0,2.4-2,4-4.9,4
	c-1.1,0-2.2-0.2-3.2-0.6c-0.4-0.1-0.8-0.3-1.1-0.5L104,29.8z"/>
<rect x="112.7" y="22.4" width="4" height="11.3"/>
<polygon points="117.6,22.4 126.2,22.4 126.2,26.2 123.9,26 123.9,33.7 119.9,33.7 119.9,26 117.6,26.2 "/>
<polygon points="131.1,22.4 132.4,25.4 133.7,22.4 138.3,22.4 134.5,28.9 134.5,33.7 130.4,33.7 130.4,28.9 126.6,22.4 "/>
<path d="M3.8,43.2c-0.2-0.5-0.7-0.8-1.2-0.8c-0.6,0-1.1,0.4-1.1,1l0,0c0,0.6,0.6,0.9,1.1,1.1L3,44.7c0.9,0.4,1.6,0.8,1.6,1.9
	c0,1.1-0.9,2.1-2.1,2.1l0,0c-1,0-1.9-0.7-2.1-1.7l0.7-0.2C1.2,47.5,1.8,48,2.5,48c0.8,0,1.4-0.6,1.4-1.3c0,0,0,0,0,0l0,0
	c0-0.8-0.6-1.1-1.2-1.3l-0.4-0.2c-0.8-0.3-1.5-0.8-1.5-1.8c0-1,0.9-1.7,1.8-1.7h0.1c0.7,0,1.4,0.4,1.8,1L3.8,43.2z"/>
<path d="M9,41.8h0.9l1.7,3l1.7-3h0.9L12,45.7v2.9h-0.8v-2.9L9,41.8z"/>
<path d="M18.7,41.8H20c1-0.1,1.9,0.2,2.6,0.8c1.4,1.3,1.5,3.5,0.2,4.9l-0.2,0.2c-0.7,0.6-1.7,0.9-2.7,0.9h-1.2V41.8z M20,47.9
	c0.8,0.1,1.6-0.2,2.1-0.7c1.1-1.1,1.1-2.8,0.1-3.9c0,0,0,0,0,0l-0.1-0.1c-0.6-0.5-1.3-0.7-2.1-0.7h-0.5V48L20,47.9z"/>
<path d="M28.7,41.5l5.3,5.6v-5.3h0.8v7.1l-5.3-5.5v5.2h-0.8L28.7,41.5z"/>
<path d="M40,41.8h3.5v0.7h-2.8v2h2.7v0.7h-2.7v2.7h2.8v0.7H40V41.8z"/>
<path d="M48,41.8h0.9l1.7,3l1.7-3h0.9l-2.3,3.9v2.9h-0.8v-2.9L48,41.8z"/>
<path d="M65.3,46.7l-0.8,1.9h-0.8l3.1-7.1l3.1,7.1H69l-0.8-1.9H65.3z M66.8,43.3L65.6,46h2.3L66.8,43.3z"/>
<path d="M75.1,45.9c-0.1,0.5,0,1.1,0.3,1.5c0.3,0.4,0.8,0.7,1.4,0.7c0.5,0,1-0.2,1.3-0.6c0.3-0.5,0.4-1,0.3-1.6v-4h0.8v4.2
	c0.1,0.7-0.2,1.3-0.6,1.8c-0.5,0.5-1.1,0.8-1.8,0.8c-0.7,0-1.3-0.2-1.8-0.7c-0.5-0.5-0.8-1.3-0.7-2v-4.2h0.8L75.1,45.9z"/>
<path d="M87.4,43.2c-0.2-0.5-0.7-0.8-1.2-0.8c-0.6,0-1.1,0.4-1.1,1l0,0c0,0.6,0.6,0.9,1.1,1.1l0.4,0.2c0.9,0.4,1.6,0.8,1.6,1.9
	c0,1.2-1,2.1-2.2,2.1c-1,0-1.9-0.8-2.1-1.8l0.7-0.2c0.1,0.7,0.7,1.2,1.4,1.3c0.7,0,1.3-0.5,1.4-1.3c0-0.8-0.6-1.1-1.2-1.3l-0.4-0.2
	c-0.8-0.4-1.5-0.8-1.5-1.7c0-1,0.8-1.8,1.8-1.7c0,0,0,0,0,0h0.1c0.7,0,1.4,0.4,1.8,1L87.4,43.2z"/>
<path d="M95,48.6h-0.8v-6.1h-1.6v-0.7h4.1v0.7H95V48.6z"/>
<path d="M102,48.6h-0.8v-6.8h1c1.3,0,2.5,0.3,2.5,1.9c0.1,1-0.7,1.8-1.7,1.9c0,0,0,0,0,0l0,0l2.2,3h-0.9l-2.1-3H102V48.6z M102,45
	h0.2c0.8,0,1.7-0.2,1.7-1.2s-0.8-1.2-1.7-1.2H102V45z"/>
<path d="M110.9,46.7l-0.8,1.9h-0.8l3.1-7.1l3.1,7.1h-0.9l-0.8-1.9H110.9z M112.4,43.3l-1.2,2.7h2.3L112.4,43.3z"/>
<path d="M120.8,47.9h1.8v0.7H120v-6.8h0.8L120.8,47.9z"/>
<path d="M128,48.6h-0.8v-6.8h0.8V48.6z"/>
<path d="M134.2,46.7l-0.8,1.9h-0.8l3.1-7.1l3.1,7.1h-0.8l-0.8-1.9H134.2z M135.6,43.3l-1.2,2.7h2.3L135.6,43.3z"/>
<g id="diamond">

		<radialGradient id="Path_2_" cx="-1824.2365" cy="88.0607" r="0.5083" gradientTransform="matrix(33.4353 0 0 33.4353 61011.293 -2927.2363)" gradientUnits="userSpaceOnUse">
		<stop  offset="0" style="stop-color:#0970B3"/>
		<stop  offset="1" style="stop-color:#48A2D7"/>
	</radialGradient>
	<polygon id="Path_1_" class="stvu1" points="34.4,17.1 17.3,34.2 0.4,17.1 17.3,0 	"/>

		<ellipse id="Oval_1_" transform="matrix(0.7071 -0.7071 0.7071 0.7071 -10.2277 18.747)" class="stvu2" cx="17.5" cy="21.7" rx="1.2" ry="1.2"/>
</g>
</svg>
