<?xml version="1.0" encoding="utf-8"?>
<!-- Generator: Adobe Illustrator 21.0.0, SVG Export Plug-In . SVG Version: 6.00 Build 0)  -->
<svg version="1.1" id="logo-element" xmlns="http://www.w3.org/2000/svg" xmlns:xlink="http://www.w3.org/1999/xlink" x="0px"
	 y="0px" viewBox="0 0 140 50" style="enable-background:new 0 0 140 50;" xml:space="preserve">
<style type="text/css">
	.stvu0{fill:none;stroke:#000000;stroke-width:0.1212;}
	.stvu1{fill:url(#Path_1_);}
	.stvu2{fill:#FFFFFF;}
</style>
<path id="Shape_13_" class="stvu0" d="M0.4,38.3H139"/>
<g id="diamond">
	
		<radialGradient id="Path_1_" cx="-1595.2949" cy="344.0264" r="0.5083" gradientTransform="matrix(33.4353 0 0 -33.4353 53356.5625 11520.0244)" gradientUnits="userSpaceOnUse">
		<stop  offset="0" style="stop-color:#0970B3"/>
		<stop  offset="1" style="stop-color:#48A2D7"/>
	</radialGradient>
	<polygon id="Path" class="stvu1" points="34.4,17.4 17.3,34.5 0.4,17.4 17.3,0.3 	"/>
	
		<ellipse id="Oval" transform="matrix(0.7071 -0.7071 0.7071 0.7071 -10.4147 18.8374)" class="stvu2" cx="17.5" cy="22" rx="1.2" ry="1.2"/>
</g>
<path d="M1.8,41.8l2.6,5.9L7,41.8l1.4,7.5H7.6l-0.9-4.8l0,0l-2.3,5.1l-2.3-5.1l0,0l-0.9,4.8H0.4L1.8,41.8z"/>
<path d="M11.2,42.2h3.7v0.7H12V45h2.8v0.7H12v2.8h2.9v0.8h-3.7V42.2z"/>
<path d="M19,48.5h2v0.8h-2.7v-7.1H19V48.5z"/>
<path d="M23.7,42.2h1.2c1.3,0,2.4,0.5,2.4,1.9c0,0.6-0.2,1.1-0.7,1.4c0.8,0.2,1.3,1,1.3,1.8c0,1.4-1.1,2-2.5,2h-1.6L23.7,42.2
	L23.7,42.2z M24.5,45.3h0.3c0.9,0,1.7-0.1,1.7-1.2c0-1.1-0.7-1.2-1.6-1.2h-0.3v2.4H24.5z M24.5,48.5h0.8c0.9,0,1.8-0.2,1.8-1.3
	s-1.1-1.3-1.9-1.3h-0.7C24.5,45.9,24.5,48.5,24.5,48.5z"/>
<path d="M38,45.7c0,2-1.7,3.7-3.7,3.7s-3.7-1.6-3.7-3.7c0-2,1.7-3.7,3.7-3.7C36.4,42.1,38,43.7,38,45.7z M31.4,45.7
	c0,1.6,1.3,2.9,2.9,2.9s2.9-1.3,2.9-2.9c0-1.6-1.3-2.9-2.9-2.9C32.7,42.8,31.4,44.1,31.4,45.7z"/>
<path d="M41.8,46.4c0,0.5,0,1.1,0.3,1.6c0.3,0.4,0.9,0.7,1.4,0.7s1.1-0.2,1.4-0.6c0.4-0.5,0.3-1.1,0.3-1.6v-4.2H46v4.4
	c0,0.8-0.1,1.4-0.6,2c-0.5,0.5-1.2,0.8-1.9,0.8s-1.4-0.3-1.8-0.7c-0.6-0.6-0.7-1.2-0.7-2v-4.4h0.8V46.4z"/>
<path d="M50.3,49.3h-0.8v-7.1h1c1.3,0,2.6,0.4,2.6,2c0,1.1-0.7,1.9-1.8,2l2.3,3.2h-1l-2.1-3.1h-0.2V49.3z M50.3,45.5h0.2
	c0.9,0,1.8-0.2,1.8-1.3c0-1.2-0.9-1.3-1.8-1.3h-0.2V45.5z"/>
<path d="M56.6,41.9l5.5,5.8v-5.5h0.8v7.4l-5.5-5.8v5.5h-0.8V41.9z"/>
<path d="M66.3,42.2H70v0.7h-2.9V45h2.8v0.7h-2.8v2.8H70v0.8h-3.7V42.2z"/>
<path d="M79,47.3l-0.9,2h-0.9l3.3-7.4l3.2,7.4h-0.9l-0.8-2H79z M80.6,43.7l-1.2,2.8h2.4L80.6,43.7z"/>
<path d="M87.1,46.4c0,0.5,0,1.1,0.3,1.6c0.3,0.4,0.9,0.7,1.4,0.7s1.1-0.2,1.4-0.6c0.4-0.5,0.3-1.1,0.3-1.6v-4.2h0.8v4.4
	c0,0.8-0.1,1.4-0.6,2c-0.5,0.5-1.2,0.8-1.9,0.8c-0.7,0-1.4-0.3-1.8-0.7c-0.6-0.6-0.7-1.2-0.7-2v-4.4h0.8L87.1,46.4L87.1,46.4z"/>
<path d="M97.9,43.6c-0.3-0.5-0.6-0.8-1.2-0.8s-1.2,0.5-1.2,1.1s0.6,0.9,1.1,1.1l0.5,0.2c0.9,0.4,1.7,0.9,1.7,2c0,1.2-1,2.2-2.2,2.2
	c-1.1,0-2-0.7-2.2-1.8l0.8-0.2c0.1,0.7,0.7,1.3,1.4,1.3c0.8,0,1.5-0.6,1.5-1.4c0-0.8-0.6-1.1-1.3-1.4l-0.4-0.2
	c-0.8-0.4-1.5-0.8-1.5-1.8c0-1.1,0.9-1.8,2-1.8c0.8,0,1.5,0.4,1.8,1.1L97.9,43.6z"/>
<path d="M103.8,49.3H103V43h-1.7v-0.7h4.2V43h-1.7V49.3z"/>
<path d="M109.1,49.3h-0.8v-7.1h1c1.3,0,2.6,0.4,2.6,2c0,1.1-0.7,1.9-1.8,2l2.3,3.2h-1l-2.1-3.1h-0.2V49.3z M109.1,45.5h0.2
	c0.9,0,1.8-0.2,1.8-1.3c0-1.2-0.9-1.3-1.8-1.3h-0.2V45.5z"/>
<path d="M116.4,47.3l-0.9,2h-0.9l3.3-7.4l3.2,7.4h-0.9l-0.8-2H116.4z M117.9,43.7l-1.2,2.8h2.4L117.9,43.7z"/>
<path d="M124.7,48.5h2v0.8H124v-7.1h0.8v6.3H124.7z"/>
<path d="M130.2,49.3h-0.8v-7.1h0.8V49.3z"/>
<path d="M134.3,47.3l-0.9,2h-0.9l3.3-7.4l3.2,7.4h-0.9l-0.8-2H134.3z M135.8,43.7l-1.2,2.8h2.4L135.8,43.7z"/>
<polygon points="46.5,5 48.8,12.8 51.1,5 56.5,5 51.1,19.2 46.6,19.2 41.2,5 "/>
<rect x="57.5" y="5" width="5.1" height="14.2"/>
<path d="M73.9,10.4c-0.8-0.7-1.6-1.1-2.5-1.1c-1.6,0-2.8,1.2-2.8,2.8s1.2,2.8,2.8,2.8c0.9,0,1.7-0.3,2.6-0.9v5
	c-1.4,0.4-2.3,0.5-3.2,0.5c-4.2,0-7.4-3.1-7.4-7.2c0-4.2,3.3-7.5,7.3-7.5c0.7,0,1.5,0.1,2.2,0.3c0.3,0.1,0.5,0.1,1,0.3V10.4z"/>
<polygon points="75.2,5 85.9,5 85.9,9.6 83.1,9.5 83.1,19.2 78,19.2 78,9.4 75.2,9.5 "/>
<path d="M86.3,12.1c0,4.4,3.1,7.4,7.7,7.4s7.7-3,7.7-7.4S98.6,4.7,94,4.7S86.3,7.7,86.3,12.1z M94,9.3c1.4,0,2.5,1.2,2.5,2.8
	c0,1.7-1,2.9-2.5,2.9s-2.5-1.2-2.5-2.8S92.5,9.3,94,9.3z"/>
<path d="M103,19.2h5.1v-3.3c0,0,0-0.2,0-0.5c-0.1-0.5-0.1-0.8-0.2-1.6c0.3,0.7,0.5,1,0.6,1.4l0.2,0.4l1.7,3.5h5.9l-3.7-5.5
	c1.7-0.6,2.6-1.8,2.6-3.8c0-2.8-2.3-4.8-5.5-4.8H103V19.2z M108.1,8.8h0.7c0.8,0,1.4,0.5,1.4,1.2c0,0.8-0.5,1.3-1.4,1.3h-0.7V8.8z"
	/>
<rect x="117.5" y="5" width="5.1" height="14.2"/>
<path d="M123.3,19.2h5.3l0.5-1.8h3.9l0.5,1.8h5.3L134,5h-5.8L123.3,19.2z M131.1,9.8l1.1,4.2H130L131.1,9.8z"/>
<path d="M52.6,30c0,0.6-0.1,1.2-0.2,1.7c-0.5,1.9-2.3,3-5,3c-1.5,0-2.9-0.4-3.8-1.1c-0.9-0.8-1.4-1.9-1.4-3.6v-6.9h4v6.5
	c0,0.6,0,0.9,0.1,1.1c0.1,0.4,0.6,0.6,1,0.6c0.3,0,0.5-0.1,0.7-0.2c0.3-0.2,0.4-0.5,0.4-1.4v-6.6h4.2V30L52.6,30z"/>
<polygon points="54,23 58,23 61.5,28.9 61.5,23 65.5,23 65.5,34.3 61.3,34.3 58,28.9 58,34.3 54,34.3 "/>
<rect x="66.8" y="23" width="4" height="11.3"/>
<polygon points="75.6,23 77.4,29.4 79.3,23 83.5,23 79.2,34.3 75.7,34.3 71.3,23 "/>
<polygon points="84,23 91.5,23 91.5,26.1 88,26.1 88,27.2 91.2,27.2 91.2,30.1 88,30.1 88,31.2 91.6,31.2 91.6,34.3 84,34.3 "/>
<path d="M92.6,34.3h4.1v-2.6c0,0,0-0.2,0-0.4c0-0.4-0.1-0.7-0.2-1.2c0.2,0.6,0.4,0.8,0.5,1.1l0.2,0.3l1.4,2.8h4.7l-2.9-4.4
	c1.4-0.5,2.1-1.5,2.1-3c0-2.2-1.8-3.8-4.4-3.8h-5.3v11.2H92.6z M96.7,26.1h0.5c0.7,0,1.1,0.4,1.1,1s-0.4,1-1.1,1h-0.5V26.1z"/>
<path d="M104.4,30.4c1,0.8,1.9,1.2,2.8,1.2c0.6,0,1-0.3,1-0.7c0-0.2-0.2-0.4-0.4-0.5c-0.1-0.1-0.3-0.1-0.9-0.2
	c-0.7-0.1-1-0.2-1.3-0.3c-1.3-0.4-2-1.5-2-2.9c0-2.3,2-4,4.8-4c1.3,0,2.4,0.3,3.7,1l-1.1,2.9c-0.8-0.6-1.5-0.9-2.3-0.9
	c-0.6,0-0.9,0.2-0.9,0.6c0,0.3,0.2,0.5,0.9,0.6l0.7,0.2c0.8,0.2,1.2,0.3,1.6,0.6c0.9,0.5,1.5,1.5,1.5,2.7c0,2.4-2,4-4.9,4
	c-1.1,0-2.2-0.2-3.2-0.6c-0.4-0.1-0.6-0.2-1.1-0.5L104.4,30.4z"/>
<rect x="113.1" y="23" width="4" height="11.3"/>
<polygon points="118,23 126.6,23 126.6,26.8 124.3,26.6 124.3,34.3 120.3,34.3 120.3,26.6 118,26.8 "/>
<polygon points="131.5,23 132.8,26 134.1,23 138.7,23 134.9,29.5 134.9,34.3 130.8,34.3 130.8,29.5 127,23 "/>
</svg>
