<?xml version="1.0" encoding="UTF-8" standalone="no"?>
<svg width="140px" height="50px" viewBox="0 0 140 50" version="1.1" xmlns="http://www.w3.org/2000/svg" xmlns:xlink="http://www.w3.org/1999/xlink">
    <!-- Generator: Sketch 40.1 (33804) - http://www.bohemiancoding.com/sketch -->
    <title>logo — full white</title>
    <desc>Created with Sketch.</desc>
    <defs>
        <radialGradient cx="49.9679803%" cy="49.8793103%" fx="49.9679803%" fy="49.8793103%" r="49.9044335%" id="radialGradient-1">
            <stop stop-color="#FFFFFF" offset="0%"></stop>
            <stop stop-color="#FFFFFF" stop-opacity="0.400758605" offset="100%"></stop>
        </radialGradient>
    </defs>
    <g id="Header-+-navigation" stroke="none" stroke-width="1" fill="none" fill-rule="evenodd">
        <g id="Search-–-L-–-1920" transform="translate(-375.000000, -74.000000)">
            <g id="logo-—-full-white" transform="translate(375.000000, 74.000000)">
                <path d="M74.1176471,9.71764706 C73.2941176,9.05882353 72.4705882,8.56470588 71.4823529,8.56470588 C69.8352941,8.56470588 68.6823529,9.71764706 68.6823529,11.3647059 C68.6823529,13.0117647 69.8352941,14.1647059 71.4823529,14.1647059 C72.4705882,14.1647059 73.1294118,13.8352941 74.1176471,13.1764706 L74.1176471,18.2823529 C72.6352941,18.6117647 71.8117647,18.7764706 70.8235294,18.7764706 C66.5411765,18.7764706 63.4117647,15.6470588 63.4117647,11.5294118 C63.4117647,7.41176471 66.7058824,3.95294118 70.8235294,3.95294118 C71.4823529,3.95294118 72.3058824,4.11764706 73.1294118,4.28235294 C73.4588235,4.28235294 73.6235294,4.44705882 74.1176471,4.61176471 L74.1176471,9.71764706 L74.1176471,9.71764706 Z" id="Shape" fill="#FFFFFF"></path>
                <polygon id="Shape" fill="#FFFFFF" points="75.4352941 4.28235294 86.3058824 4.28235294 86.3058824 9.05882353 83.3411765 8.89411765 83.3411765 18.6117647 78.2352941 18.6117647 78.2352941 8.89411765 75.4352941 8.89411765"></polygon>
                <path d="M86.6352941,11.5294118 C86.6352941,15.9764706 89.7647059,18.9411765 94.3764706,18.9411765 C98.9882353,18.9411765 102.117647,15.9764706 102.117647,11.5294118 C102.117647,7.08235294 98.9882353,4.11764706 94.3764706,4.11764706 C89.7647059,4.11764706 86.6352941,7.08235294 86.6352941,11.5294118 M94.3764706,8.72941176 C95.8588235,8.72941176 96.8470588,9.88235294 96.8470588,11.5294118 C96.8470588,13.1764706 95.8588235,14.3294118 94.3764706,14.3294118 C92.8941176,14.3294118 91.9058824,13.1764706 91.9058824,11.5294118 C91.7411765,9.88235294 92.8941176,8.72941176 94.3764706,8.72941176" id="Shape" fill="#FFFFFF"></path>
                <path d="M103.435294,18.6117647 L108.541176,18.6117647 L108.541176,15.3176471 L108.541176,14.8235294 C108.541176,14.3294118 108.376471,14 108.376471,13.1764706 C108.705882,13.8352941 108.870588,14.1647059 109.035294,14.6588235 L109.2,15.1529412 L110.847059,18.6117647 L116.776471,18.6117647 L113.152941,13.0117647 C114.8,12.5176471 115.788235,11.2 115.788235,9.22352941 C115.788235,6.42352941 113.482353,4.28235294 110.352941,4.28235294 L103.6,4.28235294 L103.6,18.6117647 L103.435294,18.6117647 Z M108.541176,8.23529412 L109.2,8.23529412 C110.023529,8.23529412 110.682353,8.72941176 110.682353,9.55294118 C110.682353,10.3764706 110.188235,10.8705882 109.2,10.8705882 L108.541176,10.8705882 L108.541176,8.23529412 L108.541176,8.23529412 Z" id="Shape" fill="#FFFFFF"></path>
                <rect id="Rectangle-path" fill="#FFFFFF" x="117.929412" y="4.44705882" width="5.10588235" height="14.3294118"></rect>
                <path d="M123.858824,18.6117647 L129.294118,18.6117647 L129.788235,16.8 L133.741176,16.8 L134.235294,18.6117647 L139.670588,18.6117647 L134.729412,4.28235294 L128.8,4.28235294 L123.858824,18.6117647 L123.858824,18.6117647 Z M131.764706,9.22352941 L132.752941,13.5058824 L130.611765,13.5058824 L131.764706,9.22352941 L131.764706,9.22352941 Z" id="Shape" fill="#FFFFFF"></path>
                <path d="M52.7058824,29.3176471 C52.7058824,29.9764706 52.7058824,30.4705882 52.5411765,30.9647059 C52.0470588,32.9411765 50.2352941,33.9294118 47.6,33.9294118 C46.1176471,33.9294118 44.6352941,33.6 43.8117647,32.7764706 C42.8235294,31.9529412 42.3294118,30.8 42.3294118,29.1529412 L42.3294118,22.2352941 L46.4470588,22.2352941 L46.4470588,28.6588235 C46.4470588,29.1529412 46.4470588,29.4823529 46.6117647,29.6470588 C46.7764706,29.9764706 47.1058824,30.3058824 47.6,30.3058824 C47.9294118,30.3058824 48.0941176,30.3058824 48.4235294,30.1411765 C48.7529412,29.9764706 48.9176471,29.6470588 48.9176471,28.6588235 L48.9176471,22.2352941 L53.0352941,22.2352941 L53.0352941,29.3176471 L52.7058824,29.3176471 Z" id="Shape" fill="#FFFFFF"></path>
                <polygon id="Shape" fill="#FFFFFF" points="54.0235294 22.4 57.9764706 22.4 61.6 28.1647059 61.6 22.4 65.5529412 22.4 65.5529412 33.7647059 61.4352941 33.7647059 57.9764706 28.1647059 57.9764706 33.7647059 54.0235294 33.7647059"></polygon>
                <rect id="Rectangle-path" fill="#FFFFFF" x="66.8705882" y="22.4" width="4.11764706" height="11.3647059"></rect>
                <polygon id="Shape" fill="#FFFFFF" points="75.7647059 22.4 77.5764706 28.8235294 79.5529412 22.4 83.8352941 22.4 79.3882353 33.7647059 75.9294118 33.7647059 71.4823529 22.4"></polygon>
                <polygon id="Shape" fill="#FFFFFF" points="84.1647059 22.4 91.7411765 22.4 91.7411765 25.5294118 88.2823529 25.5294118 88.2823529 26.5176471 91.4117647 26.5176471 91.4117647 29.6470588 88.2823529 29.6470588 88.2823529 30.6352941 91.9058824 30.6352941 91.9058824 33.7647059 84.1647059 33.7647059"></polygon>
                <path d="M92.8941176,33.7647059 L97.0117647,33.7647059 L97.0117647,31.1294118 L97.0117647,30.8 C97.0117647,30.3058824 97.0117647,30.1411765 96.8470588,29.4823529 C97.0117647,29.9764706 97.1764706,30.3058824 97.3411765,30.6352941 L97.5058824,30.9647059 L98.8235294,33.7647059 L103.6,33.7647059 L100.635294,29.3176471 C101.952941,28.8235294 102.776471,27.8352941 102.776471,26.1882353 C102.776471,23.8823529 100.964706,22.2352941 98.3294118,22.2352941 L92.8941176,22.2352941 L92.8941176,33.7647059 L92.8941176,33.7647059 Z M97.0117647,25.5294118 L97.5058824,25.5294118 C98.1647059,25.5294118 98.6588235,25.8588235 98.6588235,26.5176471 C98.6588235,27.1764706 98.1647059,27.5058824 97.5058824,27.5058824 L97.0117647,27.5058824 L97.0117647,25.5294118 L97.0117647,25.5294118 Z" id="Shape" fill="#FFFFFF"></path>
                <path d="M104.917647,29.8117647 C105.905882,30.6352941 106.894118,30.9647059 107.717647,30.9647059 C108.376471,30.9647059 108.705882,30.6352941 108.705882,30.3058824 C108.705882,30.1411765 108.541176,29.8117647 108.376471,29.8117647 C108.211765,29.8117647 108.047059,29.6470588 107.552941,29.6470588 C106.894118,29.4823529 106.564706,29.4823529 106.235294,29.3176471 C104.917647,28.8235294 104.258824,27.8352941 104.258824,26.3529412 C104.258824,24.0470588 106.235294,22.2352941 109.035294,22.2352941 C110.352941,22.2352941 111.341176,22.5647059 112.658824,23.2235294 L111.505882,26.1882353 C110.682353,25.5294118 110.023529,25.3647059 109.2,25.3647059 C108.705882,25.3647059 108.211765,25.5294118 108.211765,26.0235294 C108.211765,26.3529412 108.376471,26.5176471 109.2,26.6823529 L110.023529,26.8470588 C110.847059,27.0117647 111.176471,27.1764706 111.670588,27.3411765 C112.658824,27.8352941 113.152941,28.8235294 113.152941,30.1411765 C113.152941,32.6117647 111.176471,34.2588235 108.211765,34.2588235 C107.223529,34.2588235 105.905882,34.0941176 104.917647,33.6 C104.588235,33.4352941 104.258824,33.4352941 103.764706,33.1058824 L104.917647,29.8117647 L104.917647,29.8117647 Z" id="Shape" fill="#FFFFFF"></path>
                <rect id="Rectangle-path" fill="#FFFFFF" x="113.647059" y="22.4" width="4.11764706" height="11.3647059"></rect>
                <polygon id="Shape" fill="#FFFFFF" points="118.588235 22.4 127.152941 22.4 127.152941 26.1882353 124.847059 26.0235294 124.847059 33.7647059 120.894118 33.7647059 120.894118 26.0235294 118.588235 26.0235294"></polygon>
                <polygon id="Shape" fill="#FFFFFF" points="132.258824 22.4 133.576471 25.3647059 134.894118 22.4 139.505882 22.4 135.552941 28.9882353 135.552941 33.7647059 131.435294 33.7647059 131.435294 28.9882353 127.647059 22.4"></polygon>
                <path d="M0.494117647,37.8823529 L139.505882,37.8823529" id="Shape" stroke="#FFFFFF" stroke-width="0.1212"></path>
                <polygon id="Shape" fill="#FFFFFF" points="2.14117647 41.3411765 4.77647059 47.4352941 7.24705882 41.3411765 8.72941176 48.9176471 7.90588235 48.9176471 7.08235294 44.1411765 7.08235294 44.1411765 4.77647059 49.2470588 2.47058824 44.1411765 2.47058824 44.1411765 1.48235294 48.9176471 0.658823529 48.9176471"></polygon>
                <polygon id="Shape" fill="#FFFFFF" points="11.6941176 41.8352941 15.3176471 41.8352941 15.3176471 42.4941176 12.3529412 42.4941176 12.3529412 44.6352941 15.1529412 44.6352941 15.1529412 45.4588235 12.3529412 45.4588235 12.3529412 48.0941176 15.3176471 48.0941176 15.3176471 48.9176471 11.6941176 48.9176471"></polygon>
                <polygon id="Shape" fill="#FFFFFF" points="19.4352941 48.0941176 21.4117647 48.0941176 21.4117647 48.9176471 18.6117647 48.9176471 18.6117647 41.8352941 19.4352941 41.8352941"></polygon>
                <path d="M24.0470588,41.8352941 L25.2,41.8352941 C26.5176471,41.8352941 27.5058824,42.3294118 27.5058824,43.8117647 C27.5058824,44.3058824 27.3411765,44.8 26.8470588,45.1294118 C27.6705882,45.2941176 28.1647059,46.1176471 28.1647059,46.9411765 C28.1647059,48.4235294 27.0117647,48.9176471 25.6941176,48.9176471 L24.0470588,48.9176471 L24.0470588,41.8352941 L24.0470588,41.8352941 Z M24.8705882,44.9647059 L25.2,44.9647059 C26.0235294,44.9647059 26.8470588,44.8 26.8470588,43.8117647 C26.8470588,42.8235294 26.1882353,42.6588235 25.2,42.6588235 L24.8705882,42.6588235 L24.8705882,44.9647059 L24.8705882,44.9647059 Z M24.8705882,48.0941176 L25.6941176,48.0941176 C26.5176471,48.0941176 27.5058824,47.9294118 27.5058824,46.7764706 C27.5058824,45.6235294 26.5176471,45.4588235 25.5294118,45.4588235 L24.8705882,45.4588235 L24.8705882,48.0941176 L24.8705882,48.0941176 Z" id="Shape" fill="#FFFFFF"></path>
                <path d="M38.3764706,45.2941176 C38.3764706,47.2705882 36.7294118,48.9176471 34.7529412,48.9176471 C32.7764706,48.9176471 31.1294118,47.2705882 31.1294118,45.2941176 C31.1294118,43.3176471 32.7764706,41.6705882 34.7529412,41.6705882 C36.7294118,41.6705882 38.3764706,43.3176471 38.3764706,45.2941176 M31.7882353,45.2941176 C31.7882353,46.9411765 33.1058824,48.2588235 34.7529412,48.2588235 C36.4,48.2588235 37.7176471,46.9411765 37.7176471,45.2941176 C37.7176471,43.6470588 36.4,42.3294118 34.7529412,42.3294118 C33.1058824,42.4941176 31.7882353,43.8117647 31.7882353,45.2941176" id="Shape" fill="#FFFFFF"></path>
                <path d="M42.1647059,45.9529412 C42.1647059,46.4470588 42.1647059,47.1058824 42.4941176,47.6 C42.8235294,48.0941176 43.4823529,48.2588235 43.9764706,48.2588235 C44.4705882,48.2588235 44.9647059,48.0941176 45.2941176,47.6 C45.6235294,47.1058824 45.6235294,46.6117647 45.6235294,45.9529412 L45.6235294,41.6705882 L46.4470588,41.6705882 L46.4470588,46.1176471 C46.4470588,46.9411765 46.4470588,47.4352941 45.7882353,48.0941176 C45.2941176,48.5882353 44.6352941,48.9176471 43.8117647,48.9176471 C43.1529412,48.9176471 42.4941176,48.5882353 42,48.2588235 C41.3411765,47.6 41.3411765,46.9411765 41.3411765,46.2823529 L41.3411765,41.8352941 L42.1647059,41.8352941 L42.1647059,45.9529412 L42.1647059,45.9529412 Z" id="Shape" fill="#FFFFFF"></path>
                <path d="M50.7294118,48.9176471 L49.9058824,48.9176471 L49.9058824,41.8352941 L50.8941176,41.8352941 C52.2117647,41.8352941 53.5294118,42.1647059 53.5294118,43.8117647 C53.5294118,44.9647059 52.8705882,45.6235294 51.7176471,45.7882353 L54.0235294,48.9176471 L53.0352941,48.9176471 L50.8941176,45.7882353 L50.7294118,45.7882353 L50.7294118,48.9176471 L50.7294118,48.9176471 Z M50.7294118,45.1294118 L50.8941176,45.1294118 C51.7176471,45.1294118 52.7058824,44.9647059 52.7058824,43.8117647 C52.7058824,42.6588235 51.8823529,42.4941176 50.8941176,42.4941176 L50.7294118,42.4941176 L50.7294118,45.1294118 L50.7294118,45.1294118 Z" id="Shape" fill="#FFFFFF"></path>
                <polygon id="Shape" fill="#FFFFFF" points="56.9882353 41.5058824 62.4235294 47.2705882 62.4235294 41.8352941 63.2470588 41.8352941 63.2470588 49.2470588 57.8117647 43.4823529 57.8117647 48.9176471 56.9882353 48.9176471"></polygon>
                <polygon id="Shape" fill="#FFFFFF" points="66.7058824 41.8352941 70.3294118 41.8352941 70.3294118 42.4941176 67.5294118 42.4941176 67.5294118 44.6352941 70.3294118 44.6352941 70.3294118 45.4588235 67.5294118 45.4588235 67.5294118 48.0941176 70.3294118 48.0941176 70.3294118 48.9176471 66.7058824 48.9176471"></polygon>
                <path d="M79.3882353,46.9411765 L78.5647059,48.9176471 L77.7411765,48.9176471 L81.0352941,41.5058824 L84.1647059,48.9176471 L83.3411765,48.9176471 L82.5176471,46.9411765 L79.3882353,46.9411765 L79.3882353,46.9411765 Z M81.0352941,43.3176471 L79.8823529,46.1176471 L82.3529412,46.1176471 L81.0352941,43.3176471 L81.0352941,43.3176471 Z" id="Shape" fill="#FFFFFF"></path>
                <path d="M87.4588235,45.9529412 C87.4588235,46.4470588 87.4588235,47.1058824 87.7882353,47.6 C88.1176471,48.0941176 88.7764706,48.2588235 89.2705882,48.2588235 C89.7647059,48.2588235 90.2588235,48.0941176 90.5882353,47.6 C90.9176471,47.1058824 90.9176471,46.6117647 90.9176471,45.9529412 L90.9176471,41.6705882 L91.7411765,41.6705882 L91.7411765,46.1176471 C91.7411765,46.9411765 91.7411765,47.4352941 91.0823529,48.0941176 C90.5882353,48.5882353 89.9294118,48.9176471 89.1058824,48.9176471 C88.4470588,48.9176471 87.7882353,48.5882353 87.2941176,48.2588235 C86.6352941,47.6 86.6352941,46.9411765 86.6352941,46.2823529 L86.6352941,41.8352941 L87.4588235,41.8352941 L87.4588235,45.9529412 L87.4588235,45.9529412 Z" id="Shape" fill="#FFFFFF"></path>
                <path d="M98.3294118,43.1529412 C98,42.6588235 97.6705882,42.3294118 97.1764706,42.3294118 C96.5176471,42.3294118 96.0235294,42.8235294 96.0235294,43.4823529 C96.0235294,44.1411765 96.6823529,44.3058824 97.1764706,44.6352941 L97.6705882,44.8 C98.6588235,45.1294118 99.3176471,45.6235294 99.3176471,46.7764706 C99.3176471,48.0941176 98.3294118,48.9176471 97.0117647,48.9176471 C95.8588235,48.9176471 95.0352941,48.2588235 94.8705882,47.1058824 L95.6941176,46.9411765 C95.8588235,47.6 96.3529412,48.2588235 97.1764706,48.2588235 C98,48.2588235 98.6588235,47.6 98.6588235,46.9411765 C98.6588235,46.1176471 98,45.7882353 97.3411765,45.4588235 L96.8470588,45.2941176 C96.0235294,44.9647059 95.3647059,44.4705882 95.3647059,43.4823529 C95.3647059,42.3294118 96.3529412,41.6705882 97.3411765,41.6705882 C98.1647059,41.6705882 98.8235294,42 99.1529412,42.8235294 L98.3294118,43.1529412 L98.3294118,43.1529412 Z" id="Shape" fill="#FFFFFF"></path>
                <polygon id="Shape" fill="#FFFFFF" points="104.258824 48.9176471 103.435294 48.9176471 103.435294 42.4941176 101.623529 42.4941176 101.623529 41.8352941 105.905882 41.8352941 105.905882 42.4941176 104.258824 42.4941176"></polygon>
                <path d="M109.529412,48.9176471 L108.705882,48.9176471 L108.705882,41.8352941 L109.694118,41.8352941 C111.011765,41.8352941 112.329412,42.1647059 112.329412,43.8117647 C112.329412,44.9647059 111.670588,45.6235294 110.517647,45.7882353 L112.823529,48.9176471 L111.835294,48.9176471 L109.694118,45.7882353 L109.529412,45.7882353 L109.529412,48.9176471 L109.529412,48.9176471 Z M109.529412,45.1294118 L109.694118,45.1294118 C110.517647,45.1294118 111.505882,44.9647059 111.505882,43.8117647 C111.505882,42.6588235 110.682353,42.4941176 109.694118,42.4941176 L109.529412,42.4941176 L109.529412,45.1294118 L109.529412,45.1294118 Z" id="Shape" fill="#FFFFFF"></path>
                <path d="M116.776471,46.9411765 L115.952941,48.9176471 L115.129412,48.9176471 L118.423529,41.5058824 L121.552941,48.9176471 L120.729412,48.9176471 L119.905882,46.9411765 L116.776471,46.9411765 L116.776471,46.9411765 Z M118.423529,43.3176471 L117.270588,46.1176471 L119.741176,46.1176471 L118.423529,43.3176471 L118.423529,43.3176471 Z" id="Shape" fill="#FFFFFF"></path>
                <polygon id="Shape" fill="#FFFFFF" points="125.011765 48.0941176 126.988235 48.0941176 126.988235 48.9176471 124.352941 48.9176471 124.352941 41.8352941 125.011765 41.8352941"></polygon>
                <rect id="Rectangle-path" fill="#FFFFFF" x="129.788235" y="41.8352941" width="0.823529412" height="7.08235294"></rect>
                <path d="M134.729412,46.9411765 L133.905882,48.9176471 L133.082353,48.9176471 L136.376471,41.5058824 L139.505882,48.9176471 L138.682353,48.9176471 L137.858824,46.9411765 L134.729412,46.9411765 L134.729412,46.9411765 Z M136.211765,43.3176471 L135.058824,46.1176471 L137.529412,46.1176471 L136.211765,43.3176471 L136.211765,43.3176471 Z" id="Shape" fill="#FFFFFF"></path>
                <path d="M33.9294118,16.9647059 L17.1294118,33.7647059 L0.494117647,16.9647059 L17.1294118,0.329411765 L33.9294118,16.9647059 Z M18.1075671,22.36472 C18.5578143,21.9144728 18.5578143,21.1844778 18.1075671,20.7342306 C17.6573198,20.2839834 16.9273249,20.2839834 16.4770776,20.7342306 C16.0268304,21.1844778 16.0268304,21.9144728 16.4770776,22.36472 C16.9273249,22.8149672 17.6573198,22.8149672 18.1075671,22.36472 Z" id="Combined-Shape" fill="url(#radialGradient-1)"></path>
                <polygon id="Shape" fill="#FFFFFF" points="46.4470588 4.28235294 48.7529412 12.1882353 51.0588235 4.28235294 56.4941176 4.28235294 51.0588235 18.6117647 46.6117647 18.6117647 41.0117647 4.28235294"></polygon>
                <rect id="Rectangle-path" fill="#FFFFFF" x="57.4823529" y="4.44705882" width="5.10588235" height="14.3294118"></rect>
            </g>
        </g>
    </g>
</svg>