<?xml version="1.0" encoding="utf-8"?>
<!-- Generator: Adobe Illustrator 21.0.0, SVG Export Plug-In . SVG Version: 6.00 Build 0)  -->
<svg version="1.1" id="Layer_1" xmlns="http://www.w3.org/2000/svg" xmlns:xlink="http://www.w3.org/1999/xlink" x="0px" y="0px"
	 viewBox="0 0 244 126" style="enable-background:new 0 0 244 126;" xml:space="preserve">
<style type="text/css">
	.st0{fill:#FFFFFF;}
	.st1{fill:#009FE3;}
	.st2{fill:#EC7C23;}
	.st3{fill:#FDC600;}
	.st4{fill:#E1023F;}
	.st5{fill:#362982;}
	.st6{fill:#FFE800;}
	.st7{fill:#39A935;}
	.st8{fill:#9F1F80;}
	.st9{fill:#99BC36;}
	.st10{fill:#E74E0F;}
	.st11{fill:#E30074;}
	.st12{fill:#009447;}
	.st13{fill:#E21D2F;}
	.st14{fill:#882A80;}
	.st15{fill:#006AB4;}
	.st16{fill:#0096D6;}
	.st17{fill:#66A8D8;}
	.st18{fill:#1F2F79;}
	.st19{fill:#9DCBEF;}
	.st20{fill:#245BA7;}
	.st21{fill:#009FDB;}
	.st22{fill:none;}
	.st23{fill:none;stroke:#FFFFFF;stroke-width:0.883;stroke-miterlimit:10;}
</style>
<g>
	<g>
		<path class="st0" d="M122.8,59c-1.9,0-3.5-0.7-4.7-2.2c-1.1-1.2-1.6-2.7-1.6-4.4s0.7-3.3,2-4.6c1.2-1.2,2.7-1.8,4.4-1.8
			c2.6,0,4.6,1.3,5.6,3.5h-2.1c-0.8-1.1-2-1.7-3.5-1.7c-1.2,0-2.3,0.5-3.1,1.3c-0.9,0.9-1.4,2.1-1.4,3.3c0,1.3,0.5,2.5,1.3,3.4
			c0.9,0.9,2,1.4,3.2,1.4c1.4,0,2.6-0.6,3.4-1.6h2.2C127.3,57.8,125.3,59,122.8,59z"/>
		<path class="st0" d="M132.5,58.8V46.2h6.5v1.7h-4.7v3.7h4.7v1.6h-4.7V57h4.7v1.7L132.5,58.8L132.5,58.8z"/>
		<path class="st0" d="M143.5,58.8V46.2h1.8V57h4.1v1.7L143.5,58.8L143.5,58.8z"/>
		<path class="st0" d="M152.8,58.8V46.2h6.5v1.7h-4.7v3.7h4.7v1.6h-4.7V57h4.7v1.7L152.8,58.8L152.8,58.8z"/>
		<path class="st0" d="M170.5,49.7c0,1-0.5,1.8-1.3,2.3c1.2,0.4,2,1.5,2,2.9c0,1.2-0.5,2.3-1.2,2.9c-0.9,0.8-2,0.9-3.3,0.9h-2.9
			V46.2h2.7C169.1,46.2,170.5,47.5,170.5,49.7z M166.9,57.1c1.6,0,2.5-0.6,2.5-1.9c0-1.4-0.8-2.2-2.5-2.2h-1.4v4.1
			C165.5,57.1,166.9,57.1,166.9,57.1z M166.1,51.5c1.7,0,2.6-0.4,2.6-1.8c0-1.2-0.7-1.7-2.2-1.7h-1v3.5H166.1z"/>
		<path class="st0" d="M174.9,58.8V46.2h3.6c3.1,0,4.6,1.5,4.6,4.1c0,2-1.4,3.6-3.6,3.7l3.6,4.8h-2.3l-4.2-5.8v5.8H174.9z
			 M177.7,52.7c2.5,0,3.7-0.8,3.7-2.5s-1.1-2.3-3.3-2.3h-1.4v4.8H177.7z"/>
		<path class="st0" d="M188,58.8h-1.9l4.9-12.5h1.8l4.9,12.5h-2l-1.4-3.7h-4.9L188,58.8z M191.8,48.6l-1.8,4.8h3.6L191.8,48.6z"/>
		<path class="st0" d="M201.5,58.8V47.9h-2.3v-1.7h6.5v1.7h-2.3v10.9C203.4,58.8,201.5,58.8,201.5,58.8z"/>
		<path class="st0" d="M209,58.8V46.2h1.8v12.5L209,58.8L209,58.8z"/>
		<path class="st0" d="M215.5,58.8V46.2h1.9l6.2,9.5l-0.1-9.5h1.8v12.5h-1.7l-6.3-9.8l0.1,9.8L215.5,58.8L215.5,58.8z"/>
		<path class="st0" d="M242.1,52.4c-0.2,4-2.8,6.6-6.4,6.6c-1.9,0-3.5-0.7-4.7-2.2c-1.1-1.2-1.6-2.7-1.6-4.4s0.7-3.4,2-4.6
			c1.2-1.2,2.7-1.8,4.6-1.8c2.6,0,4.5,1.3,5.5,3.4h-2.2c-0.8-1.1-2-1.6-3.4-1.6c-1.2,0-2.3,0.5-3.1,1.3c-0.9,0.9-1.4,2.1-1.4,3.3
			c0,1.3,0.5,2.5,1.3,3.4c0.9,0.9,2,1.4,3.2,1.4c1.9,0,3.4-1,4.3-3h-4.1v-1.8C236.1,52.4,242.1,52.4,242.1,52.4z"/>
		<g>
			<path class="st0" d="M104.3,75.4h-1.5l5.3-12.6h1.4l5.2,12.6h-1.5l-1.5-3.5h-5.9L104.3,75.4z M108.7,64.4l-2.5,6.3h5L108.7,64.4z
				"/>
			<path class="st0" d="M134.9,72c-0.8,1.9-3,3.6-5.8,3.6c-3.7,0-6.6-2.9-6.6-6.5s2.8-6.5,6.5-6.5c3.1,0,5.1,2.1,5.8,3.7h-1.5
				c-0.4-0.7-1.9-2.4-4.3-2.4c-2.9,0-5.2,2.3-5.2,5.3s2.2,5.3,5.2,5.3c2.6,0,4-1.9,4.3-2.4L134.9,72L134.9,72z"/>
			<path class="st0" d="M139.8,62.8h7V64h-5.6v4.4h5.5v1.2h-5.5v4.5h5.6v1.2h-7V62.8z"/>
			<path class="st0" d="M160.9,73.3V62.8h1.4v12.6h-1.4l-7.5-10.6v10.6H152V62.8h1.4L160.9,73.3z"/>
			<path class="st0" d="M169.7,64h-3.1v-1.2h7.6V64h-3.1v11.3h-1.4V64z"/>
			<path class="st0" d="M178.7,62.8h7V64h-5.6v4.4h5.5v1.2h-5.5v4.5h5.6v1.2h-7V62.8z"/>
			<path class="st0" d="M199.8,73.3V62.8h1.4v12.6h-1.4l-7.5-10.6v10.6H191V62.8h1.4L199.8,73.3z"/>
			<path class="st0" d="M207.1,75.4h-1.5l5.3-12.6h1.4l5.2,12.6H216l-1.5-3.5h-5.9L207.1,75.4z M211.4,64.4l-2.5,6.3h5L211.4,64.4z"
				/>
			<path class="st0" d="M221.7,62.8h3.3c2,0,2.9,0.2,3.5,0.6c1,0.6,1.7,2,1.7,3.4c0,0.9-0.2,1.8-0.7,2.5c-0.7,1-1.6,1.3-2.8,1.4
				l3.1,4.7h-1.5l-3.6-5.5h0.4c0.9,0,2.1,0,2.8-0.6s1-1.4,1-2.3s-0.5-1.9-1.2-2.4c-0.6-0.4-1.4-0.5-2.5-0.5h-2v11.3h-1.4V62.8H221.7
				z"/>
			<path class="st0" d="M237.6,70.9l-4-8.2h1.5l3.2,6.8l3.2-6.8h1.5l-4,8.2v4.4h-1.4V70.9z"/>
		</g>
		<g>
			<path class="st0" d="M87.7,85.6c0-3.9,3-6.5,6.6-6.5c3.7,0,6.6,2.8,6.6,6.5s-2.9,6.5-6.6,6.5C90.5,92,87.7,89.2,87.7,85.6
				L87.7,85.6z M89.1,85.5c0,3,2.2,5.3,5.2,5.3s5.2-2.4,5.2-5.3s-2.2-5.3-5.2-5.3C91.3,80.3,89.1,82.6,89.1,85.5L89.1,85.5z"/>
			<path class="st0" d="M104.3,79.2h6.4v1.2h-5v4.4h5v1.3h-5v5.7h-1.4V79.2z"/>
			<path class="st0" d="M119.2,85.6c0-3.9,3-6.5,6.6-6.5c3.7,0,6.6,2.8,6.6,6.5s-2.9,6.5-6.6,6.5C122.1,92,119.2,89.2,119.2,85.6
				L119.2,85.6z M120.6,85.5c0,3,2.2,5.3,5.2,5.3c3,0,5.2-2.4,5.2-5.3s-2.2-5.3-5.2-5.3C122.8,80.3,120.6,82.6,120.6,85.5
				L120.6,85.5z"/>
			<path class="st0" d="M138.9,79.2c1.8,0,2.6,0.2,3.4,0.8c0.8,0.6,1.3,1.8,1.3,3s-0.5,2.4-1.3,3s-1.7,0.9-3.3,0.9h-2v4.9h-1.4V79.2
				H138.9z M137,85.6h2c1.1,0,1.7-0.1,2.3-0.5c0.5-0.4,0.9-1.2,0.9-2c0-0.9-0.4-1.7-1-2.1s-1.3-0.5-2.3-0.5h-2v5.1H137z"/>
			<path class="st0" d="M149.7,79.2c1.8,0,2.6,0.2,3.4,0.8c0.8,0.6,1.3,1.8,1.3,3s-0.5,2.4-1.3,3s-1.7,0.9-3.3,0.9h-2v4.9h-1.4V79.2
				H149.7z M147.8,85.6h2c1.1,0,1.7-0.1,2.3-0.5c0.5-0.4,0.9-1.2,0.9-2c0-0.9-0.4-1.7-1-2.1s-1.3-0.5-2.3-0.5h-2v5.1H147.8z"/>
			<path class="st0" d="M156.6,85.6c0-3.9,3-6.5,6.6-6.5c3.7,0,6.6,2.8,6.6,6.5s-2.9,6.5-6.6,6.5C159.5,92,156.6,89.2,156.6,85.6
				L156.6,85.6z M158.1,85.5c0,3,2.2,5.3,5.2,5.3s5.2-2.4,5.2-5.3s-2.2-5.3-5.2-5.3C160.2,80.3,158.1,82.6,158.1,85.5L158.1,85.5z"
				/>
			<path class="st0" d="M173,79.2h3.3c2,0,2.9,0.2,3.5,0.6c1,0.6,1.7,2,1.7,3.4c0,0.9-0.2,1.8-0.7,2.5c-0.7,1-1.6,1.3-2.8,1.4
				l3.1,4.7h-1.5l-3.6-5.5h0.4c0.9,0,2.1,0,2.8-0.6s1-1.4,1-2.3s-0.5-1.9-1.2-2.4c-0.6-0.4-1.4-0.5-2.5-0.5h-2v11.3H173V79.2z"/>
			<path class="st0" d="M186.4,80.5h-3.1v-1.2h7.6v1.2h-3.1v11.3h-1.4V80.5z"/>
			<path class="st0" d="M195.1,79.2v8c0,1,0,1.7,0.6,2.5c0.4,0.6,1.3,1.1,2.2,1.1s1.7-0.4,2.2-1c0.6-0.8,0.6-1.6,0.6-2.6v-8h1.4v8
				c0,1.5-0.2,2.9-1.4,3.9c-0.7,0.6-1.6,1-2.7,1c-0.9,0-2-0.3-2.8-1c-1.3-1.1-1.4-2.5-1.4-3.9v-8H195.1z"/>
			<path class="st0" d="M214.7,89.7V79.2h1.4v12.6h-1.4l-7.5-10.6v10.6h-1.4V79.2h1.4L214.7,89.7z"/>
			<path class="st0" d="M220,79.2h1.4v12.6H220V79.2z"/>
			<path class="st0" d="M227.3,80.5h-3.1v-1.2h7.6v1.2h-3.1v11.3h-1.4V80.5z"/>
			<path class="st0" d="M237.6,87.4l-4-8.2h1.5l3.2,6.8l3.2-6.8h1.5l-4,8.2v4.4h-1.4V87.4z"/>
		</g>
		<g>
			<path class="st0" d="M81.3,115.5H84l1.9,5.3c0,0.1,0.1,0.5,0.3,1.3c0.2-0.7,0.3-1.2,0.3-1.3l1.9-5.3h2.7l-4,9.5h-2L81.3,115.5z"
				/>
			<path class="st0" d="M92.8,115.5h2.6v9.5h-2.6V115.5z"/>
			<path class="st0" d="M105.1,118.7c-0.7-0.8-1.4-1.1-2.2-1.1c-1.5,0-2.5,1.1-2.5,2.7c0,1.5,1,2.6,2.5,2.6c0.8,0,1.5-0.4,2.2-1.1
				v2.8c-0.8,0.4-1.6,0.6-2.4,0.6c-2.8,0-4.8-2.1-4.8-5s2-5,4.8-5c0.8,0,1.6,0.2,2.4,0.6V118.7z"/>
			<path class="st0" d="M108.8,117.8h-2.1v-2.2h6.8v2.2h-2.1v7.2h-2.6C108.8,125,108.8,117.8,108.8,117.8z"/>
			<path class="st0" d="M123.5,123.8c-1,0.9-2.3,1.5-3.6,1.5c-1.2,0-2.3-0.4-3.2-1.1c-1.2-1-1.8-2.3-1.8-3.8c0-1.3,0.5-2.6,1.5-3.5
				s2.3-1.5,3.6-1.5c1.3,0,2.6,0.5,3.6,1.5c1,0.9,1.5,2.2,1.5,3.5C125,121.6,124.5,122.9,123.5,123.8z M122.4,120.3
				c0-1.5-1-2.8-2.5-2.8s-2.5,1.2-2.5,2.8c0,1.6,1,2.8,2.5,2.8C121.4,123.1,122.4,121.8,122.4,120.3z"/>
			<path class="st0" d="M127.3,115.5h2.7c0.1,0,0.1,0,0.2,0c1.3,0,2.3,0,3.1,0.6c0.7,0.5,1.1,1.3,1.1,2.3c0,1.5-0.7,2.4-2.1,2.7
				l2.6,3.8H132l-2.2-3.7v3.7h-2.4v-9.4H127.3z M130.2,120c1.1,0,1.6-0.3,1.6-1.2c0-1-0.5-1.3-1.6-1.3h-0.5v2.5H130.2z"/>
			<path class="st0" d="M136.7,115.5h2.6v9.5h-2.6V115.5z"/>
			<path class="st0" d="M144.3,115.5h3.2l3.3,9.5h-2.6l-0.5-1.7H144l-0.5,1.7h-2.6L144.3,115.5z M147.2,121.5l-1-3.1
				c0-0.1-0.1-0.6-0.3-1.3c-0.2,0.7-0.3,1.1-0.3,1.3l-1,3.1H147.2z"/>
			<path class="st0" d="M159,115.5v4c0,0.1,0,0.5,0,1.2c0,1.7,0.3,2.4,1.6,2.4c1.6,0,1.6-1,1.6-3c0-0.2,0-0.4,0-0.6v-4h2.6v4
				c0,0.2,0,0.7,0,1.6c0,2.9-1.2,4.1-4.2,4.1c-1.6,0-2.7-0.4-3.4-1.2c-0.8-0.9-0.8-2-0.8-3.5c0-0.3,0-0.7,0-1.1v-4L159,115.5
				L159,115.5z"/>
			<path class="st0" d="M167.6,115.5h2.5l3.6,4.9c0.1,0.1,0.4,0.7,0.9,1.7c-0.1-0.7-0.1-1.4-0.1-1.9v-4.7h2.5v9.5h-2.5l-3.6-4.9
				c-0.1-0.1-0.4-0.7-0.9-1.7c0.1,0.7,0.1,1.4,0.1,1.9v4.7h-2.5V115.5z"/>
			<path class="st0" d="M179.7,115.5h2.6v9.5h-2.6V115.5z"/>
			<path class="st0" d="M183.9,115.5h2.7l1.9,5.3c0,0.1,0.1,0.5,0.3,1.3c0.2-0.7,0.3-1.2,0.3-1.3l1.9-5.3h2.7l-4,9.5h-2L183.9,115.5
				z"/>
			<path class="st0" d="M195.4,115.5h5.8v2.1H198v1.6h3.1v2H198v1.6h3.3v2.1h-5.8v-9.4H195.4z"/>
			<path class="st0" d="M203.8,115.5h2.7c0.1,0,0.1,0,0.2,0c1.3,0,2.3,0,3.1,0.6c0.7,0.5,1.1,1.3,1.1,2.3c0,1.5-0.7,2.4-2.1,2.7
				l2.6,3.8h-2.9l-2.2-3.7v3.7h-2.4v-9.4H203.8z M206.7,120c1.1,0,1.6-0.3,1.6-1.2c0-1-0.5-1.3-1.6-1.3h-0.5v2.5H206.7z"/>
			<path class="st0" d="M215.9,123.2c0.7,0,1.2-0.4,1.2-1c0-0.8-0.5-1-1.6-1.3c-1.7-0.5-2.5-1.1-2.5-2.6c0-1.8,1.3-3.1,3.3-3.1
				c1.1,0,2,0.3,2.8,0.8l-0.8,1.9c-0.6-0.5-1.2-0.8-1.8-0.8s-1,0.3-1,0.8c0,0.7,0.6,0.8,1.5,1c1.7,0.5,2.6,1.1,2.6,2.8
				c0,2-1.4,3.3-3.6,3.3c-1.3,0-2.3-0.4-3.4-1.4l1.2-1.9C214.4,122.8,215.1,123.2,215.9,123.2z"/>
			<path class="st0" d="M221.7,115.5h2.6v9.5h-2.6V115.5z"/>
			<path class="st0" d="M228.3,117.8h-2.1v-2.2h6.8v2.2h-2.1v7.2h-2.6L228.3,117.8L228.3,117.8z"/>
			<path class="st0" d="M237.4,120.7l-3.3-5.2h3l1.3,2.4c0.1,0.1,0.2,0.4,0.3,0.8c0.1-0.4,0.3-0.7,0.3-0.8l1.3-2.4h3l-3.3,5.2v4.3
				h-2.5v-4.3H237.4z"/>
		</g>
	</g>
	<g>
		
			<rect x="70.4" y="56.9" transform="matrix(0.7087 -0.7055 0.7055 0.7087 -20.9701 69.4418)" class="st1" width="6.4" height="6.4"/>
		
			<rect x="79.5" y="47.8" transform="matrix(0.7087 -0.7055 0.7055 0.7087 -11.9157 73.2266)" class="st2" width="6.4" height="6.4"/>
		<rect x="38.6" y="6.6" transform="matrix(0.7087 -0.7055 0.7055 0.7087 5.2249 32.3229)" class="st3" width="6.4" height="6.4"/>
		<rect x="43.2" y="2.1" transform="matrix(0.7087 -0.7055 0.7055 0.7087 9.7727 34.2653)" class="st4" width="6.4" height="6.4"/>
		
			<rect x="65.8" y="52.4" transform="matrix(0.7087 -0.7055 0.7055 0.7087 -19.0982 64.8649)" class="st5" width="6.4" height="6.4"/>
		
			<rect x="70.4" y="47.8" transform="matrix(0.7087 -0.7055 0.7055 0.7087 -14.5505 66.8073)" class="st6" width="6.4" height="6.4"/>
		<rect x="43.1" y="11.3" transform="matrix(0.7087 -0.7055 0.7055 0.7087 3.2826 36.8703)" class="st7" width="6.4" height="6.4"/>
		<rect x="47.7" y="6.7" transform="matrix(0.7087 -0.7055 0.7055 0.7087 7.8303 38.8127)" class="st5" width="6.4" height="6.4"/>
		
			<rect x="61.3" y="47.7" transform="matrix(0.7087 -0.7055 0.7055 0.7087 -17.1559 60.3175)" class="st8" width="6.4" height="6.4"/>
		
			<rect x="65.9" y="43.2" transform="matrix(0.7087 -0.7055 0.7055 0.7087 -12.6081 62.2598)" class="st9" width="6.4" height="6.4"/>
		
			<rect x="47.7" y="15.8" transform="matrix(0.7087 -0.7055 0.7055 0.7087 1.4107 41.4472)" class="st10" width="6.4" height="6.4"/>
		<rect x="52.3" y="11.2" transform="matrix(0.7087 -0.7055 0.7055 0.7087 5.9878 43.3192)" class="st3" width="6.4" height="6.4"/>
		
			<rect x="56.7" y="43.2" transform="matrix(0.7087 -0.7055 0.7055 0.7087 -15.3134 55.8111)" class="st11" width="6.4" height="6.4"/>
		
			<rect x="61.3" y="38.6" transform="matrix(0.7087 -0.7055 0.7055 0.7087 -10.7362 57.683)" class="st12" width="6.4" height="6.4"/>
		
			<rect x="33.9" y="56.8" transform="matrix(0.7087 -0.7055 0.7055 0.7087 -31.5503 43.6645)" class="st3" width="6.4" height="6.4"/>
		
			<rect x="38.5" y="52.2" transform="matrix(0.7087 -0.7055 0.7055 0.7087 -26.9732 45.5364)" class="st11" width="6.4" height="6.4"/>
		
			<rect x="47.6" y="43.2" transform="matrix(0.7087 -0.7055 0.7055 0.7087 -17.9187 49.3213)" class="st13" width="6.4" height="6.4"/>
		<rect x="56.7" y="34" transform="matrix(0.7087 -0.7055 0.7055 0.7087 -8.7938 53.1356)" class="st4" width="6.4" height="6.4"/>
		
			<rect x="38.5" y="61.4" transform="matrix(0.7087 -0.7055 0.7055 0.7087 -33.4223 48.2414)" class="st14" width="6.4" height="6.4"/>
		
			<rect x="47.6" y="52.3" transform="matrix(0.7087 -0.7055 0.7055 0.7087 -24.3678 52.0262)" class="st14" width="6.4" height="6.4"/>
		
			<rect x="29.3" y="70.5" transform="matrix(0.7087 -0.7055 0.7055 0.7087 -42.5472 44.4271)" class="st14" width="6.4" height="6.4"/>
		<rect x="33.9" y="65.9" transform="matrix(0.7087 -0.7055 0.7055 0.7087 -37.97 46.299)" class="st3" width="6.4" height="6.4"/>
		
			<rect x="61.3" y="29.6" transform="matrix(0.7087 -0.7055 0.7055 0.7087 -4.3165 55.0484)" class="st9" width="6.4" height="6.4"/>
		
			<rect x="65.9" y="24.9" transform="matrix(0.7087 -0.7055 0.7055 0.7087 0.2606 56.9204)" class="st15" width="6.4" height="6.4"/>
		
			<rect x="20.2" y="61.4" transform="matrix(0.7087 -0.7055 0.7055 0.7087 -38.7329 35.3028)" class="st15" width="6.4" height="6.4"/>
		
			<rect x="29.3" y="61.3" transform="matrix(0.7087 -0.7055 0.7055 0.7087 -36.0277 41.7515)" class="st7" width="6.4" height="6.4"/>
		
			<rect x="65.9" y="34.1" transform="matrix(0.7087 -0.7055 0.7055 0.7087 -6.1885 59.6253)" class="st5" width="6.4" height="6.4"/>
		
			<rect x="70.5" y="29.5" transform="matrix(0.7087 -0.7055 0.7055 0.7087 -1.6113 61.4973)" class="st6" width="6.4" height="6.4"/>
		
			<rect x="38.6" y="24.9" transform="matrix(0.7087 -0.7055 0.7055 0.7087 -7.6438 37.6624)" class="st9" width="6.4" height="6.4"/>
		<rect x="43.1" y="20.4" transform="matrix(0.7087 -0.7055 0.7055 0.7087 -3.137 39.5048)" class="st3" width="6.4" height="6.4"/>
		
			<rect x="70.4" y="38.7" transform="matrix(0.7087 -0.7055 0.7055 0.7087 -8.1014 64.1023)" class="st8" width="6.4" height="6.4"/>
		<rect x="75" y="34.1" transform="matrix(0.7087 -0.7055 0.7055 0.7087 -3.5536 66.0447)" class="st9" width="6.4" height="6.4"/>
		<rect x="34" y="20.3" transform="matrix(0.7087 -0.7055 0.7055 0.7087 -5.7718 33.0855)" class="st12" width="6.4" height="6.4"/>
		
			<rect x="38.6" y="15.8" transform="matrix(0.7087 -0.7055 0.7055 0.7087 -1.2241 35.0278)" class="st14" width="6.4" height="6.4"/>
		<rect x="75" y="43.2" transform="matrix(0.7087 -0.7055 0.7055 0.7087 -9.9733 68.6792)" class="st11" width="6.4" height="6.4"/>
		
			<rect x="79.6" y="38.7" transform="matrix(0.7087 -0.7055 0.7055 0.7087 -5.4256 70.6216)" class="st3" width="6.4" height="6.4"/>
		
			<rect x="29.4" y="15.7" transform="matrix(0.7087 -0.7055 0.7055 0.7087 -3.8295 28.5381)" class="st4" width="6.4" height="6.4"/>
		<rect x="34" y="11.2" transform="matrix(0.7087 -0.7055 0.7055 0.7087 0.6478 30.451)" class="st10" width="6.4" height="6.4"/>
		<rect x="75" y="52.3" transform="matrix(0.7087 -0.7055 0.7055 0.7087 -16.393 71.3137)" class="st13" width="6.4" height="6.4"/>
		
			<rect x="84.1" y="43.2" transform="matrix(0.7087 -0.7055 0.7055 0.7087 -7.3385 75.0985)" class="st4" width="6.4" height="6.4"/>
		<rect x="2" y="43.1" transform="matrix(0.7087 -0.7055 0.7055 0.7087 -31.1337 17.1246)" class="st15" width="6.4" height="6.4"/>
		<rect x="6.6" y="38.5" transform="matrix(0.7087 -0.7055 0.7055 0.7087 -26.586 19.067)" class="st16" width="6.4" height="6.4"/>
		
			<rect x="20.3" y="24.8" transform="matrix(0.7087 -0.7055 0.7055 0.7087 -12.9543 24.7238)" class="st15" width="6.4" height="6.4"/>
		
			<rect x="24.9" y="20.3" transform="matrix(0.7087 -0.7055 0.7055 0.7087 -8.4067 26.6661)" class="st9" width="6.4" height="6.4"/>
		
			<rect x="56.7" y="61.4" transform="matrix(0.7087 -0.7055 0.7055 0.7087 -28.1527 61.0801)" class="st10" width="6.4" height="6.4"/>
		
			<rect x="11.2" y="43.1" transform="matrix(0.7087 -0.7055 0.7055 0.7087 -28.4579 23.6438)" class="st17" width="6.4" height="6.4"/>
		
			<rect x="24.9" y="29.4" transform="matrix(0.7087 -0.7055 0.7055 0.7087 -14.8263 29.3007)" class="st18" width="6.4" height="6.4"/>
		
			<rect x="29.4" y="24.9" transform="matrix(0.7087 -0.7055 0.7055 0.7087 -10.349 31.2136)" class="st2" width="6.4" height="6.4"/>
		
			<rect x="15.7" y="47.6" transform="matrix(0.7087 -0.7055 0.7055 0.7087 -30.3709 28.1208)" class="st16" width="6.4" height="6.4"/>
		
			<rect x="11.1" y="52.2" transform="matrix(0.7087 -0.7055 0.7055 0.7087 -34.948 26.2489)" class="st18" width="6.4" height="6.4"/>
		
			<rect x="29.4" y="34" transform="matrix(0.7087 -0.7055 0.7055 0.7087 -16.7687 33.8481)" class="st17" width="6.4" height="6.4"/>
		<rect x="34" y="29.4" transform="matrix(0.7087 -0.7055 0.7055 0.7087 -12.1915 35.72)" class="st3" width="6.4" height="6.4"/>
		
			<rect x="15.6" y="56.7" transform="matrix(0.7087 -0.7055 0.7055 0.7087 -36.7905 30.7554)" class="st19" width="6.4" height="6.4"/>
		
			<rect x="24.8" y="56.8" transform="matrix(0.7087 -0.7055 0.7055 0.7087 -34.1852 37.2451)" class="st18" width="6.4" height="6.4"/>
		
			<rect x="56.8" y="15.8" transform="matrix(0.7087 -0.7055 0.7055 0.7087 4.0455 47.8666)" class="st14" width="6.4" height="6.4"/>
		
			<rect x="38.5" y="43.1" transform="matrix(0.7087 -0.7055 0.7055 0.7087 -20.5535 42.9019)" class="st15" width="6.4" height="6.4"/>
		
			<rect x="24.8" y="65.9" transform="matrix(0.7087 -0.7055 0.7055 0.7087 -40.6048 39.8797)" class="st13" width="6.4" height="6.4"/>
		
			<rect x="34" y="38.6" transform="matrix(0.7087 -0.7055 0.7055 0.7087 -18.6406 38.4249)" class="st20" width="6.4" height="6.4"/>
		
			<rect x="61.4" y="20.4" transform="matrix(0.7087 -0.7055 0.7055 0.7087 2.1735 52.4434)" class="st10" width="6.4" height="6.4"/>
		
			<rect x="29.4" y="52.2" transform="matrix(0.7087 -0.7055 0.7055 0.7087 -29.608 39.1171)" class="st17" width="6.4" height="6.4"/>
		<rect x="56.8" y="24.9" transform="matrix(0.7087 -0.7055 0.7055 0.7087 -2.3742 50.501)" class="st8" width="6.4" height="6.4"/>
		
			<rect x="52.2" y="29.5" transform="matrix(0.7087 -0.7055 0.7055 0.7087 -6.9513 48.6291)" class="st2" width="6.4" height="6.4"/>
		
			<rect x="43.1" y="47.7" transform="matrix(0.7087 -0.7055 0.7055 0.7087 -22.4255 47.4788)" class="st6" width="6.4" height="6.4"/>
		
			<rect x="52.2" y="38.6" transform="matrix(0.7087 -0.7055 0.7055 0.7087 -13.371 51.2637)" class="st9" width="6.4" height="6.4"/>
		
			<rect x="52.2" y="20.4" transform="matrix(0.7087 -0.7055 0.7055 0.7087 -0.5317 45.9946)" class="st6" width="6.4" height="6.4"/>
		<rect x="47.7" y="24.9" transform="matrix(0.7087 -0.7055 0.7055 0.7087 -5.009 44.0817)" class="st7" width="6.4" height="6.4"/>
		<rect x="43" y="56.9" transform="matrix(0.7087 -0.7055 0.7055 0.7087 -28.9156 50.0838)" class="st0" width="6.4" height="6.4"/>
		
			<rect x="52.2" y="47.7" transform="matrix(0.7087 -0.7055 0.7055 0.7087 -19.7906 53.8981)" class="st6" width="6.4" height="6.4"/>
		<rect x="33.9" y="75" transform="matrix(0.7087 -0.7055 0.7055 0.7087 -44.3897 48.9335)" class="st6" width="6.4" height="6.4"/>
		
			<rect x="38.4" y="70.6" transform="matrix(0.7087 -0.7055 0.7055 0.7087 -39.9124 50.8464)" class="st11" width="6.4" height="6.4"/>
		
			<rect x="52.2" y="56.8" transform="matrix(0.7087 -0.7055 0.7055 0.7087 -26.2103 56.5327)" class="st3" width="6.4" height="6.4"/>
		
			<rect x="56.7" y="52.3" transform="matrix(0.7087 -0.7055 0.7055 0.7087 -21.733 58.4455)" class="st9" width="6.4" height="6.4"/>
		
			<rect x="38.4" y="79.6" transform="matrix(0.7087 -0.7055 0.7055 0.7087 -46.3321 53.4809)" class="st10" width="6.4" height="6.4"/>
		<rect x="43" y="75" transform="matrix(0.7087 -0.7055 0.7055 0.7087 -41.7549 55.3528)" class="st14" width="6.4" height="6.4"/>
		
			<rect x="61.3" y="56.9" transform="matrix(0.7087 -0.7055 0.7055 0.7087 -23.6049 63.0224)" class="st8" width="6.4" height="6.4"/>
		
			<rect x="61.3" y="66" transform="matrix(0.7087 -0.7055 0.7055 0.7087 -30.0246 65.6569)" class="st15" width="6.4" height="6.4"/>
		<rect x="43" y="84.2" transform="matrix(0.7087 -0.7055 0.7055 0.7087 -48.2039 58.0578)" class="st4" width="6.4" height="6.4"/>
		
			<rect x="47.5" y="79.7" transform="matrix(0.7087 -0.7055 0.7055 0.7087 -43.6972 59.9002)" class="st3" width="6.4" height="6.4"/>
		
			<rect x="65.8" y="61.5" transform="matrix(0.7087 -0.7055 0.7055 0.7087 -25.5179 67.4994)" class="st11" width="6.4" height="6.4"/>
		
			<rect x="6.6" y="47.6" transform="matrix(0.7087 -0.7055 0.7055 0.7087 -33.0057 21.7015)" class="st1" width="6.4" height="6.4"/>
		
			<rect x="56.7" y="70.5" transform="matrix(0.7087 -0.7055 0.7055 0.7087 -34.5723 63.7145)" class="st3" width="6.4" height="6.4"/>
		
			<rect x="52.1" y="75.1" transform="matrix(0.7087 -0.7055 0.7055 0.7087 -39.1495 61.8426)" class="st21" width="6.4" height="6.4"/>
		<rect x="52.1" y="66" transform="matrix(0.7087 -0.7055 0.7055 0.7087 -32.7004 59.1377)" class="st5" width="6.4" height="6.4"/>
		
			<rect x="47.6" y="70.5" transform="matrix(0.7087 -0.7055 0.7055 0.7087 -37.2071 57.2952)" class="st10" width="6.4" height="6.4"/>
		
			<rect x="47.6" y="61.4" transform="matrix(0.7087 -0.7055 0.7055 0.7087 -30.7875 54.6607)" class="st11" width="6.4" height="6.4"/>
		<rect x="43" y="65.9" transform="matrix(0.7087 -0.7055 0.7055 0.7087 -35.3352 52.7184)" class="st9" width="6.4" height="6.4"/>
		
			<rect x="38.5" y="34" transform="matrix(0.7087 -0.7055 0.7055 0.7087 -14.1338 40.2674)" class="st14" width="6.4" height="6.4"/>
		
			<rect x="43.1" y="29.5" transform="matrix(0.7087 -0.7055 0.7055 0.7087 -9.5862 42.2098)" class="st3" width="6.4" height="6.4"/>
		
			<rect x="43.1" y="38.6" transform="matrix(0.7087 -0.7055 0.7055 0.7087 -16.0058 44.8443)" class="st10" width="6.4" height="6.4"/>
		
			<rect x="47.6" y="34.1" transform="matrix(0.7087 -0.7055 0.7055 0.7087 -11.4991 46.6868)" class="st21" width="6.4" height="6.4"/>
		
			<rect x="24.8" y="47.7" transform="matrix(0.7087 -0.7055 0.7055 0.7087 -27.7655 34.6107)" class="st21" width="6.4" height="6.4"/>
		
			<rect x="33.9" y="47.7" transform="matrix(0.7087 -0.7055 0.7055 0.7087 -25.1307 41.03)" class="st19" width="6.4" height="6.4"/>
		
			<rect x="29.4" y="43.1" transform="matrix(0.7087 -0.7055 0.7055 0.7087 -23.1884 36.4826)" class="st18" width="6.4" height="6.4"/>
		
			<rect x="20.3" y="52.2" transform="matrix(0.7087 -0.7055 0.7055 0.7087 -32.2428 32.6977)" class="st20" width="6.4" height="6.4"/>
		
			<rect x="20.3" y="34" transform="matrix(0.7087 -0.7055 0.7055 0.7087 -19.4035 27.4287)" class="st17" width="6.4" height="6.4"/>
		
			<rect x="20.3" y="43.1" transform="matrix(0.7087 -0.7055 0.7055 0.7087 -25.8232 30.0632)" class="st19" width="6.4" height="6.4"/>
		
			<rect x="24.8" y="38.6" transform="matrix(0.7087 -0.7055 0.7055 0.7087 -21.3164 31.9057)" class="st20" width="6.4" height="6.4"/>
		
			<rect x="11.2" y="33.9" transform="matrix(0.7087 -0.7055 0.7055 0.7087 -22.0089 20.939)" class="st19" width="6.4" height="6.4"/>
		
			<rect x="15.7" y="29.5" transform="matrix(0.7087 -0.7055 0.7055 0.7087 -17.5315 22.8518)" class="st1" width="6.4" height="6.4"/>
		
			<rect x="15.7" y="38.5" transform="matrix(0.7087 -0.7055 0.7055 0.7087 -23.9512 25.4864)" class="st18" width="6.4" height="6.4"/>
	</g>
	<line class="st22" x1="17.6" y1="120.4" x2="120.5" y2="18"/>
	<line class="st22" x1="43.5" y1="120.4" x2="146.3" y2="18"/>
	<line class="st23" x1="242.1" y1="103.7" x2="69" y2="103.7"/>
</g>
<polygon class="st15" points="274.5,146.4 273,146.4 273,146.4 "/>
</svg>
