<svg id="Layer_1" data-name="Layer 1" xmlns="http://www.w3.org/2000/svg" viewBox="0 0 648.1 278.21"><defs><style>.cls-1{fill:#fff;}</style></defs><title>Victoria University Polytechnic</title><rect class="cls-1" x="195.93" y="233.57" width="452.16" height="1.36"/><path class="cls-1" d="M297.77,411.88l7.78,18,7.81-18,4.34,22.63h-2.44L312.51,420h-.06l-6.9,15.36L298.68,420h-.06l-2.75,14.48h-2.44Z" transform="translate(-96.9 -157.27)"/><path class="cls-1" d="M328.09,413.1h11.1v2.21h-8.72v6.36h8.46v2.21h-8.46v8.41h8.72v2.21h-11.1Z" transform="translate(-96.9 -157.27)"/><path class="cls-1" d="M353.3,432.3h5.91v2.21h-8.29V413.1h2.39Z" transform="translate(-96.9 -157.27)"/><path class="cls-1" d="M369.23,413.1h3.52c3.89,0,7.16,1.42,7.16,5.79a4.75,4.75,0,0,1-2.1,4.17,5.44,5.44,0,0,1,4.06,5.48c0,4.26-3.44,6-7.67,6h-5Zm2.39,9.43h.91c2.7,0,5-.31,5-3.63s-2-3.58-5-3.58h-.94Zm0,9.77H374c2.67,0,5.48-.65,5.48-3.92s-3.18-3.8-5.79-3.8h-2.07Z" transform="translate(-96.9 -157.27)"/><path class="cls-1" d="M414.26,423.84a11.16,11.16,0,1,1-11.16-11.1A11.1,11.1,0,0,1,414.26,423.84Zm-19.93,0a8.77,8.77,0,1,0,8.77-8.86A8.85,8.85,0,0,0,394.33,423.81Z" transform="translate(-96.9 -157.27)"/><path class="cls-1" d="M427.49,425.85c0,1.59-.06,3.41.94,4.77a5.52,5.52,0,0,0,4.32,2,5.66,5.66,0,0,0,4.2-1.9c1.14-1.36,1.05-3.24,1.05-4.91V413.1h2.39v13.4c0,2.33-.17,4.17-1.87,5.93a7.87,7.87,0,0,1-5.76,2.44,8,8,0,0,1-5.54-2.19c-1.87-1.79-2.1-3.75-2.1-6.19V413.1h2.38Z" transform="translate(-96.9 -157.27)"/><path class="cls-1" d="M454.66,434.51h-2.39V413.1h3.09c4.06,0,7.84,1.08,7.84,5.91a5.6,5.6,0,0,1-5.37,5.91l6.82,9.6h-2.92l-6.47-9.4h-.6Zm0-11.5h.74c2.7,0,5.42-.51,5.42-3.83,0-3.52-2.58-3.86-5.45-3.86h-.71Z" transform="translate(-96.9 -157.27)"/><path class="cls-1" d="M475.47,412.2l16.7,17.49V413.1h2.39v22.38L477.86,418v16.5h-2.39Z" transform="translate(-96.9 -157.27)"/><path class="cls-1" d="M506.67,413.1h11.1v2.21h-8.72v6.36h8.46v2.21h-8.46v8.41h8.72v2.21h-11.1Z" transform="translate(-96.9 -157.27)"/><path class="cls-1" d="M548,428.44l-2.58,6.08h-2.61l9.88-22.43,9.63,22.43h-2.64l-2.53-6.08Zm4.63-10.79L549,426.22h7.24Z" transform="translate(-96.9 -157.27)"/><path class="cls-1" d="M574.64,425.85c0,1.59-.06,3.41.94,4.77a5.52,5.52,0,0,0,4.32,2,5.66,5.66,0,0,0,4.2-1.9c1.14-1.36,1.05-3.24,1.05-4.91V413.1h2.39v13.4c0,2.33-.17,4.17-1.87,5.93a7.87,7.87,0,0,1-5.76,2.44,8,8,0,0,1-5.54-2.19c-1.87-1.79-2.1-3.75-2.1-6.19V413.1h2.38Z" transform="translate(-96.9 -157.27)"/><path class="cls-1" d="M609.14,417.28a3.93,3.93,0,0,0-3.69-2.33,3.4,3.4,0,0,0-3.55,3.32c0,1.85,1.9,2.7,3.35,3.35l1.42.62c2.78,1.22,5.14,2.61,5.14,6a6.76,6.76,0,0,1-13.4,1.08l2.33-.65a4.41,4.41,0,0,0,4.29,4,4.3,4.3,0,0,0,4.4-4.17c0-2.5-2-3.35-3.95-4.26l-1.31-.57c-2.5-1.14-4.66-2.41-4.66-5.48,0-3.32,2.81-5.45,6-5.45a6.14,6.14,0,0,1,5.54,3.32Z" transform="translate(-96.9 -157.27)"/><path class="cls-1" d="M628.65,434.51h-2.39v-19.2h-5.17V413.1h12.78v2.21h-5.22Z" transform="translate(-96.9 -157.27)"/><path class="cls-1" d="M646.36,434.51H644V413.1h3.09c4.06,0,7.84,1.08,7.84,5.91a5.6,5.6,0,0,1-5.37,5.91l6.82,9.6h-2.92l-6.47-9.4h-.6Zm0-11.5h.74c2.7,0,5.42-.51,5.42-3.83,0-3.52-2.58-3.86-5.45-3.86h-.71Z" transform="translate(-96.9 -157.27)"/><path class="cls-1" d="M670.24,428.44l-2.58,6.08H665l9.88-22.43,9.63,22.43h-2.64l-2.53-6.08Zm4.63-10.79-3.66,8.58h7.24Z" transform="translate(-96.9 -157.27)"/><path class="cls-1" d="M696.93,432.3h5.91v2.21h-8.29V413.1h2.39Z" transform="translate(-96.9 -157.27)"/><path class="cls-1" d="M715.3,434.51h-2.39V413.1h2.39Z" transform="translate(-96.9 -157.27)"/><path class="cls-1" d="M730.51,428.44l-2.58,6.08h-2.61l9.88-22.43,9.63,22.43h-2.64l-2.53-6.08Zm4.63-10.79-3.66,8.58h7.24Z" transform="translate(-96.9 -157.27)"/><polygon class="cls-1" points="76.62 155.74 0.28 79.39 76.62 114.16 76.62 155.74"/><polygon class="cls-1" points="79.4 0 79.4 111.1 155.74 76.34 79.4 0"/><polygon class="cls-1" points="76.34 0 76.34 111.1 0 76.34 76.34 0"/><polygon class="cls-1" points="79.4 155.74 155.74 79.39 79.4 114.16 79.4 155.74"/><polygon class="cls-1" points="216.2 18.5 227.06 55.24 237.82 18.5 262.84 18.5 237.54 84.85 216.66 84.85 191.18 18.5 216.2 18.5"/><rect class="cls-1" x="267.37" y="18.5" width="23.71" height="66.35"/><path class="cls-1" d="M441,201c-3.87-3.42-7.64-5.08-11.87-5.08A13,13,0,0,0,415.77,209c0,7.39,5.7,12.93,13.25,12.93,4.32,0,7.91-1.39,12-4.25v23.44c-6.72,1.65-10.76,2.29-15,2.29-19.85,0-34.65-14.51-34.65-33.68,0-19.45,15.25-35,34.37-35A54.91,54.91,0,0,1,436.2,176a47.59,47.59,0,0,1,4.78,1.2Z" transform="translate(-96.9 -157.27)"/><polygon class="cls-1" points="349.75 18.5 400.02 18.5 400.02 40.17 386.59 39.43 386.59 84.85 363 84.85 363 39.33 349.75 39.8 349.75 18.5"/><path class="cls-1" d="M534.39,195.77c6.7,0,11.65,5.63,11.65,13.2,0,7.76-4.87,13.39-11.65,13.39s-11.83-5.63-11.83-13.3,5-13.3,11.83-13.3m-36,13.3c0,20.63,14.53,34.49,36,34.49s35.95-13.86,35.95-34.49-14.55-34.49-35.95-34.49-36,13.86-36,34.49" transform="translate(-96.9 -157.27)"/><path class="cls-1" d="M599.76,193.66h3.12c3.94,0,6.52,2.31,6.52,5.82,0,3.7-2.48,5.91-6.52,5.91h-3.12Zm-23.93,48.46h23.84V226.7c0-.18-.1-1-.19-2.11-.27-2.48-.46-4-.92-7.28,1.38,3.33,2.12,4.8,2.94,6.64l.91,1.92,8,16.25h27.44L620.62,216.2c8-2.67,12.08-8.59,12.08-17.84,0-13.06-10.77-22.59-25.6-22.59H575.83Z" transform="translate(-96.9 -157.27)"/><rect class="cls-1" x="546.87" y="18.5" width="23.72" height="66.35"/><path class="cls-1" d="M706.83,198.18l5,19.82h-10ZM670.3,242.12h25l2.48-8.44h18.12l2.49,8.44h25l-22.91-66.35H693.2Z" transform="translate(-96.9 -157.27)"/><path class="cls-1" d="M341.79,291.69a29.35,29.35,0,0,1-1,7.93c-2.42,8.86-10.85,13.91-23.24,13.91-7,0-13.47-1.91-17.63-5.13-4.31-3.58-6.51-9-6.51-16.71v-32h18.78v29.74c0,2.64.15,4.19.51,4.93a5,5,0,0,0,4.84,2.87A5.4,5.4,0,0,0,321,296.1c1.61-1.1,2-2.27,2-6.69V259.67h18.77Z" transform="translate(-96.9 -157.27)"/><polygon class="cls-1" points="250.8 102.41 269.65 102.41 286.03 129.22 286.03 102.41 304.66 102.41 304.66 155.22 285.38 155.22 269.58 129.22 269.58 155.22 250.8 155.22 250.8 102.41"/><rect class="cls-1" x="310.72" y="102.41" width="18.88" height="52.81"/><polygon class="cls-1" points="351.83 102.41 360.47 131.64 369.04 102.41 388.95 102.41 368.81 155.22 352.19 155.22 331.91 102.41 351.83 102.41"/><polygon class="cls-1" points="390.97 102.41 426.11 102.41 426.11 116.64 409.93 116.64 409.93 121.66 424.65 121.66 424.65 135.46 409.93 135.46 409.93 140.42 426.56 140.42 426.56 155.22 390.97 155.22 390.97 102.41"/><path class="cls-1" d="M546.63,273.91h2.48c3.14,0,5.18,1.84,5.18,4.64s-2,4.7-5.18,4.7h-2.48Zm-19,38.58h19V300.22c0-.15-.07-.81-.15-1.69-.21-2-.37-3.14-.73-5.79,1.1,2.65,1.68,3.82,2.33,5.28l.74,1.54,6.35,12.93H577l-13.7-20.63c6.38-2.13,9.6-6.84,9.6-14.19,0-10.4-8.58-18-20.38-18H527.59Z" transform="translate(-96.9 -157.27)"/><path class="cls-1" d="M583.24,293.57c4.69,3.68,8.79,5.44,12.9,5.44,2.79,0,4.78-1.24,4.78-3.08a2.58,2.58,0,0,0-1.85-2.36c-.66-.29-1.18-.43-4.11-.88a38.47,38.47,0,0,1-6.16-1.46,13.74,13.74,0,0,1-9.52-13.6c0-11,9.24-18.72,22.45-18.72,6.15,0,11.07,1.39,17.08,4.75L613.53,277a17.17,17.17,0,0,0-10.77-4c-2.65,0-4.43,1.1-4.43,2.72,0,1.4,1.11,2.14,4.2,2.72l3.45.8a29.3,29.3,0,0,1,7.55,2.64c4.33,2.5,6.82,7.13,6.82,12.79,0,11.28-9.24,18.86-22.9,18.86a42.87,42.87,0,0,1-15-2.92,30.27,30.27,0,0,1-5.13-2.41Z" transform="translate(-96.9 -157.27)"/><rect class="cls-1" x="526.14" y="102.41" width="18.87" height="52.81"/><polygon class="cls-1" points="549.32 102.41 589.33 102.41 589.33 119.65 578.64 119.06 578.64 155.22 559.86 155.22 559.86 118.99 549.32 119.36 549.32 102.41"/><polygon class="cls-1" points="612.26 102.41 618.34 115.85 624.41 102.41 645.79 102.41 627.86 132.6 627.86 155.22 608.81 155.22 608.81 132.6 590.87 102.41 612.26 102.41"/><path class="cls-1" d="M299,355.46V369.8h-5.33V334.49h6a27.29,27.29,0,0,1,6.7.62,9,9,0,0,1,4,2.33,10.05,10.05,0,0,1,3,7.5,9.67,9.67,0,0,1-3.25,7.68q-3.25,2.84-8.76,2.84Zm0-4.94h2q7.34,0,7.34-5.65,0-5.47-7.57-5.47H299Z" transform="translate(-96.9 -157.27)"/><path class="cls-1" d="M331.37,352a17.29,17.29,0,0,1,5.47-12.81,18,18,0,0,1,13.08-5.35,18.47,18.47,0,0,1,18.36,18.36,17.36,17.36,0,0,1-5.44,12.92,18.66,18.66,0,0,1-25.48.59A17.35,17.35,0,0,1,331.37,352Zm5.37.07a12.76,12.76,0,0,0,3.93,9.63,13,13,0,0,0,18.41-.07,13.7,13.7,0,0,0,0-18.94,12.46,12.46,0,0,0-9.28-3.84,12.59,12.59,0,0,0-9.31,3.84A12.74,12.74,0,0,0,336.74,352.06Z" transform="translate(-96.9 -157.27)"/><path class="cls-1" d="M394.33,334.49v30.3h10.38v5H389V334.49Z" transform="translate(-96.9 -157.27)"/><path class="cls-1" d="M427.53,354.55,416,334.49h6.13l8.07,14.11,8.1-14.11h6.13l-11.57,20.05V369.8h-5.33Z" transform="translate(-96.9 -157.27)"/><path class="cls-1" d="M474.22,339.5v30.3h-5.33V339.5h-8.12v-5h21.54v5Z" transform="translate(-96.9 -157.27)"/><path class="cls-1" d="M520.53,339.5H506.37V348h13.74v5H506.37v11.8h14.15v5H501V334.49h19.48Z" transform="translate(-96.9 -157.27)"/><path class="cls-1" d="M567.21,336.39v6.31a14.77,14.77,0,0,0-9.56-3.86,12.17,12.17,0,0,0-9.17,3.91,13.18,13.18,0,0,0-3.75,9.51,12.85,12.85,0,0,0,3.75,9.38,12.38,12.38,0,0,0,9.19,3.82,11.27,11.27,0,0,0,4.78-.92,13.6,13.6,0,0,0,2.27-1.23,26.15,26.15,0,0,0,2.48-1.88v6.43a19.24,19.24,0,0,1-9.6,2.58,17.72,17.72,0,0,1-12.92-5.28,17.51,17.51,0,0,1-5.33-12.85,18.13,18.13,0,0,1,4.46-12,17.75,17.75,0,0,1,14.2-6.47A18,18,0,0,1,567.21,336.39Z" transform="translate(-96.9 -157.27)"/><path class="cls-1" d="M593.62,348.31h15.23V334.49h5.33V369.8h-5.33V353.31H593.62V369.8h-5.33V334.49h5.33Z" transform="translate(-96.9 -157.27)"/><path class="cls-1" d="M636.73,369.8V332.09L662.47,359V334.49h5.33V372l-25.75-26.87V369.8Z" transform="translate(-96.9 -157.27)"/><path class="cls-1" d="M695.65,334.49V369.8h-5.33V334.49Z" transform="translate(-96.9 -157.27)"/><path class="cls-1" d="M744.23,336.39v6.31a14.77,14.77,0,0,0-9.56-3.86,12.17,12.17,0,0,0-9.17,3.91,13.18,13.18,0,0,0-3.75,9.51,12.85,12.85,0,0,0,3.75,9.38,12.38,12.38,0,0,0,9.19,3.82,11.27,11.27,0,0,0,4.78-.92,13.6,13.6,0,0,0,2.27-1.23,26.15,26.15,0,0,0,2.48-1.88v6.43a19.24,19.24,0,0,1-9.6,2.58,17.72,17.72,0,0,1-12.92-5.28,17.51,17.51,0,0,1-5.33-12.85,18.13,18.13,0,0,1,4.46-12,17.75,17.75,0,0,1,14.2-6.47A18,18,0,0,1,744.23,336.39Z" transform="translate(-96.9 -157.27)"/></svg>